<?xml version="1.0" encoding="utf-8"?>
<svg viewBox="0 0 23 23" xmlns="http://www.w3.org/2000/svg" xmlns:xlink="http://www.w3.org/1999/xlink">
  <style>
    :root>svg {
      display: none
    }

    :root>svg:target {
      display: block
    }
  </style>

  <symbol id="logo-header" width="190" height="32" viewBox="0 0 190 32" fill="none" xmlns="http://www.w3.org/2000/svg">
    <path d="M18.6893 19.6916C14.4138 23.9676 7.48199 23.9676 3.20657 19.6916C-1.06886 15.4157 -1.06886 8.48295 3.20657 4.20698C7.48199 -0.0689931 14.4138 -0.0689931 18.6893 4.20698C22.9647 8.48295 22.9647 15.4157 18.6893 19.6916Z" fill="#89E440"/>
    <path fill-rule="evenodd" clip-rule="evenodd" d="M12.566 26.5345C16.1465 30.1154 21.9516 30.1154 25.532 26.5345C29.1125 22.9536 29.1125 17.1478 25.532 13.5669C21.9516 9.98593 16.1465 9.98593 12.566 13.5669C8.98555 17.1478 8.98555 22.9536 12.566 26.5345ZM11.3077 27.793C15.5831 32.069 22.5149 32.069 26.7904 27.793C31.0658 23.517 31.0658 16.5843 26.7904 12.3084C22.5149 8.03238 15.5831 8.03238 11.3077 12.3084C7.03226 16.5843 7.03226 23.517 11.3077 27.793Z" fill="#89E440"/>
    <path d="M48.2053 10.0727H42.6242L41.6054 12.4354H39.9961L44.6322 2.09874H46.2859L50.922 12.4354H49.224L48.2053 10.0727ZM47.6295 8.71418L45.4295 3.6197L43.2148 8.71418H47.6295Z" fill="#080109"/>
    <path d="M57.415 6.38105H53.65V12.4354H52.2473V5.05206H57.415V6.38105Z" fill="#080109"/>
    <path d="M61.6492 4.90439C62.4072 4.90439 63.0667 5.06682 63.6277 5.39169C64.1986 5.71655 64.6366 6.17924 64.9418 6.77975C65.2469 7.37041 65.3995 8.06445 65.3995 8.86184C65.3995 9.06857 65.3946 9.22116 65.3847 9.31961H59.3312C59.4296 9.89058 59.6954 10.3631 60.1285 10.7372C60.5714 11.1014 61.0833 11.2836 61.664 11.2836C62.6188 11.2836 63.298 10.9341 63.7015 10.2351H65.1485C64.9122 10.9242 64.4742 11.4903 63.8344 11.9333C63.1946 12.3665 62.4711 12.583 61.664 12.583C60.9455 12.583 60.2958 12.4206 59.7151 12.0957C59.1343 11.761 58.6815 11.3033 58.3567 10.7224C58.0319 10.1318 57.8695 9.47219 57.8695 8.74371C57.8695 8.01522 58.0319 7.36057 58.3567 6.77975C58.6815 6.18909 59.1294 5.73132 59.7003 5.40646C60.281 5.07175 60.9307 4.90439 61.6492 4.90439ZM61.6197 6.14479C61.039 6.14479 60.537 6.32691 60.1137 6.69115C59.7003 7.05539 59.4444 7.523 59.3459 8.09398H63.8787C63.8197 7.50331 63.5785 7.03078 63.1552 6.67638C62.7418 6.32199 62.23 6.14479 61.6197 6.14479Z" fill="#080109"/>
    <path d="M73.7427 5.05206V12.4354H72.3401V9.40821H68.5012V12.4354H67.0986V5.05206H68.5012V8.07921H72.3401V5.05206H73.7427Z" fill="#080109"/>
    <path d="M81.7208 6.38105H79.137V12.4354H77.7344V6.38105H75.1505V5.05206H81.7208V6.38105Z" fill="#080109"/>
    <path d="M82.1649 8.74371C82.1649 8.03491 82.3372 7.3901 82.6817 6.80928C83.0262 6.21862 83.4987 5.75593 84.0991 5.42122C84.6995 5.07667 85.364 4.90439 86.0924 4.90439C86.9093 4.90439 87.6426 5.14558 88.2923 5.62795C88.9518 6.10049 89.3849 6.72068 89.5916 7.48855H88.0561C87.8887 7.09477 87.618 6.78467 87.244 6.55825C86.8798 6.32198 86.4713 6.20385 86.0185 6.20385C85.5559 6.20385 85.1425 6.31706 84.7783 6.54348C84.4141 6.76006 84.1286 7.06524 83.9219 7.45901C83.7152 7.84295 83.6119 8.27118 83.6119 8.74371C83.6119 9.21624 83.7152 9.64939 83.9219 10.0432C84.1286 10.4271 84.4141 10.7323 84.7783 10.9587C85.1425 11.1753 85.5559 11.2836 86.0185 11.2836C86.4713 11.2836 86.8798 11.1704 87.244 10.9439C87.618 10.7077 87.8887 10.3926 88.0561 9.99887H89.5916C89.3849 10.7667 88.9518 11.3919 88.2923 11.8742C87.6426 12.3468 86.9093 12.583 86.0924 12.583C85.364 12.583 84.6995 12.4157 84.0991 12.081C83.4987 11.7364 83.0262 11.2737 82.6817 10.6929C82.3372 10.1022 82.1649 9.45251 82.1649 8.74371Z" fill="#080109"/>
    <path d="M96.4711 6.38105H93.8873V12.4354H92.4847V6.38105H89.9008V5.05206H96.4711V6.38105Z" fill="#080109"/>
    <path d="M102.977 8.66988C103.705 9.03412 104.069 9.59525 104.069 10.3533C104.069 10.9636 103.848 11.4657 103.405 11.8595C102.962 12.2434 102.352 12.4354 101.574 12.4354H97.868V5.05206H101.574C102.312 5.05206 102.893 5.24402 103.316 5.62795C103.749 6.00204 103.966 6.4795 103.966 7.06032C103.966 7.40487 103.882 7.71989 103.715 8.00538C103.557 8.28102 103.311 8.50252 102.977 8.66988ZM101.412 8.12351C101.776 8.12351 102.051 8.03983 102.238 7.87248C102.425 7.70512 102.519 7.45901 102.519 7.13415C102.519 6.53364 102.15 6.23339 101.412 6.23339H99.2411V8.12351H101.412ZM101.426 11.254C101.82 11.254 102.115 11.1704 102.312 11.003C102.519 10.8258 102.622 10.5748 102.622 10.2499C102.622 9.94473 102.519 9.71338 102.312 9.55587C102.115 9.38852 101.82 9.30484 101.426 9.30484H99.2411V11.254H101.426Z" fill="#080109"/>
    <path d="M108.96 12.583C108.232 12.583 107.568 12.4157 106.967 12.081C106.367 11.7364 105.894 11.2737 105.55 10.6929C105.205 10.1022 105.033 9.45251 105.033 8.74371C105.033 8.03491 105.205 7.3901 105.55 6.80928C105.894 6.21862 106.367 5.75593 106.967 5.42122C107.568 5.07667 108.232 4.90439 108.96 4.90439C109.679 4.90439 110.333 5.07667 110.924 5.42122C111.524 5.75593 111.997 6.21862 112.341 6.80928C112.686 7.3901 112.858 8.03491 112.858 8.74371C112.858 9.45251 112.686 10.1022 112.341 10.6929C111.997 11.2737 111.524 11.7364 110.924 12.081C110.333 12.4157 109.679 12.583 108.96 12.583ZM108.96 11.2836C109.413 11.2836 109.827 11.1753 110.201 10.9587C110.575 10.7323 110.87 10.4271 111.086 10.0432C111.303 9.64939 111.411 9.21624 111.411 8.74371C111.411 8.27118 111.303 7.84295 111.086 7.45901C110.87 7.06524 110.575 6.76006 110.201 6.54348C109.827 6.31706 109.413 6.20385 108.96 6.20385C108.498 6.20385 108.074 6.31706 107.691 6.54348C107.317 6.76006 107.021 7.06524 106.805 7.45901C106.588 7.84295 106.48 8.27118 106.48 8.74371C106.48 9.21624 106.588 9.64939 106.805 10.0432C107.021 10.4271 107.317 10.7323 107.691 10.9587C108.074 11.1753 108.498 11.2836 108.96 11.2836Z" fill="#080109"/>
    <path d="M126.366 11.1064V14.0597H125.008V12.4354H118.689V5.05206H120.091V11.1064H123.93V5.05206H125.333V11.1064H126.366Z" fill="#080109"/>
    <path d="M134.561 5.05206V12.4354H133.158V7.88725L129.319 11.1359V12.4354H127.917V5.05206H129.319V9.51157L133.158 6.26292V5.05206H134.561Z" fill="#080109"/>
    <path d="M143.115 5.05206C143.823 5.05206 144.473 5.21449 145.064 5.53936C145.654 5.86422 146.117 6.31214 146.451 6.88312C146.796 7.44425 146.968 8.06445 146.968 8.74371C146.968 9.42297 146.796 10.0481 146.451 10.6191C146.117 11.1802 145.654 11.6232 145.064 11.9481C144.473 12.2729 143.823 12.4354 143.115 12.4354H142.317V14.9457H140.915V12.4354H140.147C139.428 12.4354 138.774 12.2729 138.183 11.9481C137.593 11.6232 137.125 11.1802 136.781 10.6191C136.436 10.0481 136.264 9.42297 136.264 8.74371C136.264 8.06445 136.436 7.44425 136.781 6.88312C137.125 6.31214 137.593 5.86422 138.183 5.53936C138.774 5.21449 139.428 5.05206 140.147 5.05206H140.915V2.0249H142.317V5.05206H143.115ZM140.915 11.1359V6.35152H140.191C139.729 6.35152 139.305 6.45981 138.921 6.67638C138.547 6.88312 138.252 7.1686 138.036 7.53285C137.819 7.89709 137.711 8.30071 137.711 8.74371C137.711 9.18671 137.819 9.59033 138.036 9.95457C138.252 10.3188 138.547 10.6092 138.921 10.8258C139.305 11.0325 139.729 11.1359 140.191 11.1359H140.915ZM143.07 11.1359C143.523 11.1359 143.937 11.0325 144.311 10.8258C144.685 10.6092 144.98 10.3188 145.196 9.95457C145.413 9.59033 145.521 9.18671 145.521 8.74371C145.521 8.30071 145.413 7.89709 145.196 7.53285C144.98 7.1686 144.685 6.88312 144.311 6.67638C143.937 6.45981 143.523 6.35152 143.07 6.35152H142.317V11.1359H143.07Z" fill="#080109"/>
    <path d="M152.563 4.90439C153.213 4.90439 153.803 5.07175 154.335 5.40646C154.866 5.73132 155.285 6.18416 155.59 6.76498C155.895 7.3458 156.047 8.00538 156.047 8.74371C156.047 9.48204 155.895 10.1416 155.59 10.7224C155.285 11.3033 154.866 11.761 154.335 12.0957C153.803 12.4206 153.213 12.583 152.563 12.583C152.071 12.583 151.608 12.4747 151.175 12.2582C150.742 12.0317 150.373 11.7216 150.068 11.3279V14.9457H148.665V5.05206H149.994V6.24815C150.309 5.82484 150.688 5.49506 151.131 5.25879C151.574 5.02252 152.051 4.90439 152.563 4.90439ZM152.327 11.2836C152.76 11.2836 153.149 11.1753 153.493 10.9587C153.838 10.7421 154.108 10.4419 154.305 10.0579C154.502 9.66416 154.6 9.22608 154.6 8.74371C154.6 8.26133 154.502 7.82818 154.305 7.44425C154.108 7.05047 153.838 6.74529 153.493 6.52872C153.149 6.31214 152.76 6.20385 152.327 6.20385C151.894 6.20385 151.5 6.31214 151.145 6.52872C150.791 6.74529 150.516 7.05047 150.319 7.44425C150.122 7.82818 150.023 8.26133 150.023 8.74371C150.023 9.22608 150.122 9.66416 150.319 10.0579C150.516 10.4419 150.791 10.7421 151.145 10.9587C151.5 11.1753 151.894 11.2836 152.327 11.2836Z" fill="#080109"/>
    <path d="M161.084 12.583C160.355 12.583 159.691 12.4157 159.091 12.081C158.49 11.7364 158.018 11.2737 157.673 10.6929C157.329 10.1022 157.156 9.45251 157.156 8.74371C157.156 8.03491 157.329 7.3901 157.673 6.80928C158.018 6.21862 158.49 5.75593 159.091 5.42122C159.691 5.07667 160.355 4.90439 161.084 4.90439C161.802 4.90439 162.457 5.07667 163.048 5.42122C163.648 5.75593 164.12 6.21862 164.465 6.80928C164.809 7.3901 164.982 8.03491 164.982 8.74371C164.982 9.45251 164.809 10.1022 164.465 10.6929C164.12 11.2737 163.648 11.7364 163.048 12.081C162.457 12.4157 161.802 12.583 161.084 12.583ZM161.084 11.2836C161.537 11.2836 161.95 11.1753 162.324 10.9587C162.698 10.7323 162.993 10.4271 163.21 10.0432C163.427 9.64939 163.535 9.21624 163.535 8.74371C163.535 8.27118 163.427 7.84295 163.21 7.45901C162.993 7.06524 162.698 6.76006 162.324 6.54348C161.95 6.31706 161.537 6.20385 161.084 6.20385C160.621 6.20385 160.198 6.31706 159.814 6.54348C159.44 6.76006 159.145 7.06524 158.928 7.45901C158.712 7.84295 158.603 8.27118 158.603 8.74371C158.603 9.21624 158.712 9.64939 158.928 10.0432C159.145 10.4271 159.44 10.7323 159.814 10.9587C160.198 11.1753 160.621 11.2836 161.084 11.2836Z" fill="#080109"/>
    <path d="M171.783 8.66988C172.511 9.03412 172.875 9.59525 172.875 10.3533C172.875 10.9636 172.654 11.4657 172.211 11.8595C171.768 12.2434 171.157 12.4354 170.38 12.4354H166.674V5.05206H170.38C171.118 5.05206 171.699 5.24402 172.122 5.62795C172.555 6.00204 172.772 6.4795 172.772 7.06032C172.772 7.40487 172.688 7.71989 172.521 8.00538C172.363 8.28102 172.117 8.50252 171.783 8.66988ZM170.217 8.12351C170.582 8.12351 170.857 8.03983 171.044 7.87248C171.231 7.70512 171.325 7.45901 171.325 7.13415C171.325 6.53364 170.956 6.23339 170.217 6.23339H168.047V8.12351H170.217ZM170.232 11.254C170.626 11.254 170.921 11.1704 171.118 11.003C171.325 10.8258 171.428 10.5748 171.428 10.2499C171.428 9.94473 171.325 9.71338 171.118 9.55587C170.921 9.38852 170.626 9.30484 170.232 9.30484H168.047V11.254H170.232Z" fill="#080109"/>
    <path d="M177.766 12.583C177.038 12.583 176.373 12.4157 175.773 12.081C175.173 11.7364 174.7 11.2737 174.356 10.6929C174.011 10.1022 173.839 9.45251 173.839 8.74371C173.839 8.03491 174.011 7.3901 174.356 6.80928C174.7 6.21862 175.173 5.75593 175.773 5.42122C176.373 5.07667 177.038 4.90439 177.766 4.90439C178.485 4.90439 179.139 5.07667 179.73 5.42122C180.33 5.75593 180.803 6.21862 181.147 6.80928C181.492 7.3901 181.664 8.03491 181.664 8.74371C181.664 9.45251 181.492 10.1022 181.147 10.6929C180.803 11.2737 180.33 11.7364 179.73 12.081C179.139 12.4157 178.485 12.583 177.766 12.583ZM177.766 11.2836C178.219 11.2836 178.632 11.1753 179.006 10.9587C179.381 10.7323 179.676 10.4271 179.892 10.0432C180.109 9.64939 180.217 9.21624 180.217 8.74371C180.217 8.27118 180.109 7.84295 179.892 7.45901C179.676 7.06524 179.381 6.76006 179.006 6.54348C178.632 6.31706 178.219 6.20385 177.766 6.20385C177.304 6.20385 176.88 6.31706 176.496 6.54348C176.122 6.76006 175.827 7.06524 175.611 7.45901C175.394 7.84295 175.286 8.27118 175.286 8.74371C175.286 9.21624 175.394 9.64939 175.611 10.0432C175.827 10.4271 176.122 10.7323 176.496 10.9587C176.88 11.1753 177.304 11.2836 177.766 11.2836Z" fill="#080109"/>
    <path d="M190 5.05206V12.4354H188.598V7.88725L184.759 11.1359V12.4354H183.356V5.05206H184.759V9.51157L188.598 6.26292V5.05206H190ZM186.752 4.32849C185.984 4.32849 185.354 4.12668 184.862 3.72306C184.37 3.31944 184.095 2.778 184.035 2.09874H185.246C185.295 2.47282 185.453 2.76815 185.719 2.98473C185.984 3.19146 186.329 3.29483 186.752 3.29483C187.175 3.29483 187.52 3.19146 187.786 2.98473C188.051 2.76815 188.209 2.47282 188.258 2.09874H189.469C189.41 2.778 189.134 3.31944 188.642 3.72306C188.15 4.12668 187.52 4.32849 186.752 4.32849Z" fill="#080109"/>
    <path d="M48.2348 26.1064V29.0597H46.8765V27.4354H41.3544V29.0597H39.9961V26.1064H40.9115C41.3249 25.5551 41.6448 24.8266 41.8712 23.9209C42.0976 23.0054 42.2108 21.9914 42.2108 20.879V20.0521H47.2013V26.1064H48.2348ZM45.8282 26.1507V21.3072H43.5249C43.456 23.3745 43.0622 24.989 42.3437 26.1507H45.8282Z" fill="#080109"/>
    <path d="M52.9006 27.583C52.1722 27.583 51.5078 27.4157 50.9073 27.081C50.3069 26.7364 49.8344 26.2737 49.4899 25.6929C49.1454 25.1022 48.9732 24.4525 48.9732 23.7437C48.9732 23.0349 49.1454 22.3901 49.4899 21.8093C49.8344 21.2186 50.3069 20.7559 50.9073 20.4212C51.5078 20.0767 52.1722 19.9044 52.9006 19.9044C53.6191 19.9044 54.2737 20.0767 54.8643 20.4212C55.4647 20.7559 55.9372 21.2186 56.2817 21.8093C56.6262 22.3901 56.7985 23.0349 56.7985 23.7437C56.7985 24.4525 56.6262 25.1022 56.2817 25.6929C55.9372 26.2737 55.4647 26.7364 54.8643 27.081C54.2737 27.4157 53.6191 27.583 52.9006 27.583ZM52.9006 26.2836C53.3534 26.2836 53.7668 26.1753 54.1408 25.9587C54.5148 25.7323 54.8101 25.4271 55.0267 25.0432C55.2432 24.6494 55.3515 24.2162 55.3515 23.7437C55.3515 23.2712 55.2432 22.8429 55.0267 22.459C54.8101 22.0652 54.5148 21.7601 54.1408 21.5435C53.7668 21.3171 53.3534 21.2039 52.9006 21.2039C52.4379 21.2039 52.0147 21.3171 51.6308 21.5435C51.2568 21.7601 50.9615 22.0652 50.7449 22.459C50.5284 22.8429 50.4201 23.2712 50.4201 23.7437C50.4201 24.2162 50.5284 24.6494 50.7449 25.0432C50.9615 25.4271 51.2568 25.7323 51.6308 25.9587C52.0147 26.1753 52.4379 26.2836 52.9006 26.2836Z" fill="#080109"/>
    <path d="M57.8983 23.7437C57.8983 23.0349 58.0706 22.3901 58.4151 21.8093C58.7596 21.2186 59.2321 20.7559 59.8325 20.4212C60.4329 20.0767 61.0973 19.9044 61.8257 19.9044C62.6427 19.9044 63.376 20.1456 64.0257 20.628C64.6852 21.1005 65.1183 21.7207 65.325 22.4885H63.7894C63.6221 22.0948 63.3514 21.7847 62.9774 21.5583C62.6132 21.322 62.2047 21.2039 61.7519 21.2039C61.2893 21.2039 60.8759 21.3171 60.5117 21.5435C60.1475 21.7601 59.862 22.0652 59.6553 22.459C59.4486 22.8429 59.3453 23.2712 59.3453 23.7437C59.3453 24.2162 59.4486 24.6494 59.6553 25.0432C59.862 25.4271 60.1475 25.7323 60.5117 25.9587C60.8759 26.1753 61.2893 26.2836 61.7519 26.2836C62.2047 26.2836 62.6132 26.1704 62.9774 25.9439C63.3514 25.7077 63.6221 25.3926 63.7894 24.9989H65.325C65.1183 25.7667 64.6852 26.3919 64.0257 26.8742C63.376 27.3468 62.6427 27.583 61.8257 27.583C61.0973 27.583 60.4329 27.4157 59.8325 27.081C59.2321 26.7364 58.7596 26.2737 58.4151 25.6929C58.0706 25.1022 57.8983 24.4525 57.8983 23.7437Z" fill="#080109"/>
    <path d="M72.2045 21.3811H69.6207V27.4354H68.218V21.3811H65.6342V20.0521H72.2045V21.3811Z" fill="#080109"/>
    <path d="M80.7328 20.0521L77.1449 28.2623C76.9579 28.7644 76.6971 29.1729 76.3624 29.4879C76.0277 29.8128 75.5356 29.9752 74.8859 29.9752C74.4233 29.9752 74.064 29.9654 73.8081 29.9457V28.6167C74.0837 28.6364 74.4135 28.6462 74.7973 28.6462C75.073 28.6462 75.2895 28.5724 75.447 28.4247C75.6143 28.2771 75.7521 28.0752 75.8604 27.8193L76.0819 27.3025L72.494 20.0521H74.1329L76.7758 25.7224L79.2563 20.0521H80.7328Z" fill="#080109"/>
    <path d="M88.7525 27.4354H87.3499V21.3811H83.5111V27.4354H82.1084V20.0521H88.7525V27.4354Z" fill="#080109"/>
    <path d="M97.7642 20.0521V27.4354H96.3616V24.4082H92.5227V27.4354H91.1201V20.0521H92.5227V23.0792H96.3616V20.0521H97.7642Z" fill="#080109"/>
    <path d="M103.395 27.583C102.666 27.583 102.002 27.4157 101.402 27.081C100.801 26.7364 100.329 26.2737 99.9841 25.6929C99.6396 25.1022 99.4673 24.4525 99.4673 23.7437C99.4673 23.0349 99.6396 22.3901 99.9841 21.8093C100.329 21.2186 100.801 20.7559 101.402 20.4212C102.002 20.0767 102.666 19.9044 103.395 19.9044C104.113 19.9044 104.768 20.0767 105.358 20.4212C105.959 20.7559 106.431 21.2186 106.776 21.8093C107.12 22.3901 107.293 23.0349 107.293 23.7437C107.293 24.4525 107.12 25.1022 106.776 25.6929C106.431 26.2737 105.959 26.7364 105.358 27.081C104.768 27.4157 104.113 27.583 103.395 27.583ZM103.395 26.2836C103.848 26.2836 104.261 26.1753 104.635 25.9587C105.009 25.7323 105.304 25.4271 105.521 25.0432C105.737 24.6494 105.846 24.2162 105.846 23.7437C105.846 23.2712 105.737 22.8429 105.521 22.459C105.304 22.0652 105.009 21.7601 104.635 21.5435C104.261 21.3171 103.848 21.2039 103.395 21.2039C102.932 21.2039 102.509 21.3171 102.125 21.5435C101.751 21.7601 101.456 22.0652 101.239 22.459C101.023 22.8429 100.914 23.2712 100.914 23.7437C100.914 24.2162 101.023 24.6494 101.239 25.0432C101.456 25.4271 101.751 25.7323 102.125 25.9587C102.509 26.1753 102.932 26.2836 103.395 26.2836Z" fill="#080109"/>
    <path d="M108.393 23.7437C108.393 23.0349 108.565 22.3901 108.909 21.8093C109.254 21.2186 109.726 20.7559 110.327 20.4212C110.927 20.0767 111.592 19.9044 112.32 19.9044C113.137 19.9044 113.87 20.1456 114.52 20.628C115.179 21.1005 115.612 21.7207 115.819 22.4885H114.284C114.116 22.0948 113.846 21.7847 113.472 21.5583C113.107 21.322 112.699 21.2039 112.246 21.2039C111.783 21.2039 111.37 21.3171 111.006 21.5435C110.642 21.7601 110.356 22.0652 110.149 22.459C109.943 22.8429 109.839 23.2712 109.839 23.7437C109.839 24.2162 109.943 24.6494 110.149 25.0432C110.356 25.4271 110.642 25.7323 111.006 25.9587C111.37 26.1753 111.783 26.2836 112.246 26.2836C112.699 26.2836 113.107 26.1704 113.472 25.9439C113.846 25.7077 114.116 25.3926 114.284 24.9989H115.819C115.612 25.7667 115.179 26.3919 114.52 26.8742C113.87 27.3468 113.137 27.583 112.32 27.583C111.592 27.583 110.927 27.4157 110.327 27.081C109.726 26.7364 109.254 26.2737 108.909 25.6929C108.565 25.1022 108.393 24.4525 108.393 23.7437Z" fill="#080109"/>
    <path d="M122.699 21.3811H120.115V27.4354H118.712V21.3811H116.128V20.0521H122.699V21.3811Z" fill="#080109"/>
    <path d="M130.74 20.0521V27.4354H129.337V22.8872L125.498 26.1359V27.4354H124.096V20.0521H125.498V24.5116L129.337 21.2629V20.0521H130.74Z" fill="#080109"/>
  </symbol>
    
  <symbol id="logo-footer" width="237" height="40" viewBox="0 0 237 40" fill="none" xmlns="http://www.w3.org/2000/svg">
    <path d="M23.3124 24.5597C17.9794 29.8927 9.3328 29.8927 3.99977 24.5597C-1.33326 19.2267 -1.33326 10.5801 3.99977 5.24709C9.3328 -0.0859431 17.9794 -0.0859431 23.3124 5.24709C28.6454 10.5801 28.6454 19.2267 23.3124 24.5597Z" fill="#89E440"/>
    <path fill-rule="evenodd" clip-rule="evenodd" d="M15.6745 33.0942C20.1406 37.5604 27.3817 37.5604 31.8479 33.0942C36.314 28.628 36.314 21.387 31.8479 16.9208C27.3817 12.4546 20.1406 12.4546 15.6745 16.9208C11.2083 21.387 11.2083 28.628 15.6745 33.0942ZM14.1048 34.6638C19.4379 39.9968 28.0844 39.9968 33.4175 34.6638C38.7505 29.3308 38.7505 20.6842 33.4175 15.3512C28.0844 10.0182 19.4379 10.0182 14.1048 15.3512C8.77182 20.6842 8.77182 29.3308 14.1048 34.6638Z" fill="#89E440"/>
    <path d="M60.1285 12.5627H53.1669L51.8961 15.5094H49.8887L55.6716 2.61748H57.7343L63.5173 15.5094H61.3993L60.1285 12.5627ZM59.4103 10.8683L56.6661 4.51443L53.9036 10.8683H59.4103Z" fill="white"/>
    <path d="M71.6165 7.95842H66.9201V15.5094H65.1705V6.30088H71.6165V7.95842Z" fill="white"/>
    <path d="M76.8981 6.11671C77.8435 6.11671 78.6662 6.3193 79.366 6.72448C80.0781 7.12965 80.6245 7.70672 81.0051 8.45568C81.3857 9.19236 81.5761 10.058 81.5761 11.0525C81.5761 11.3103 81.5699 11.5006 81.5576 11.6234H74.0067C74.1294 12.3355 74.4609 12.9249 75.0012 13.3914C75.5537 13.8457 76.1921 14.0729 76.9165 14.0729C78.1075 14.0729 78.9547 13.637 79.4581 12.7653H81.263C80.9683 13.6247 80.4219 14.3307 79.6238 14.8832C78.8258 15.4235 77.9233 15.6936 76.9165 15.6936C76.0202 15.6936 75.2099 15.491 74.4855 15.0858C73.7611 14.6684 73.1963 14.0974 72.7911 13.373C72.386 12.6363 72.1834 11.8137 72.1834 10.9051C72.1834 9.99657 72.386 9.18008 72.7911 8.45568C73.1963 7.719 73.755 7.14807 74.4671 6.74289C75.1915 6.32544 76.0018 6.11671 76.8981 6.11671ZM76.8613 7.66375C76.1369 7.66375 75.5107 7.89089 74.9828 8.34518C74.4671 8.79946 74.1478 9.38267 74.0251 10.0948H79.6791C79.6054 9.35811 79.3046 8.76877 78.7767 8.32676C78.261 7.88475 77.6225 7.66375 76.8613 7.66375Z" fill="white"/>
    <path d="M91.9831 6.30088V15.5094H90.2335V11.7339H85.4451V15.5094H83.6955V6.30088H85.4451V10.0764H90.2335V6.30088H91.9831Z" fill="white"/>
    <path d="M101.935 7.95842H98.7118V15.5094H96.9622V7.95842H93.7392V6.30088H101.935V7.95842Z" fill="white"/>
    <path d="M102.489 10.9051C102.489 10.0211 102.704 9.21692 103.133 8.49251C103.563 7.75583 104.152 7.17876 104.901 6.76131C105.65 6.33158 106.479 6.11671 107.388 6.11671C108.407 6.11671 109.321 6.41753 110.132 7.01915C110.954 7.60849 111.495 8.38201 111.753 9.3397H109.837C109.628 8.84858 109.291 8.46182 108.824 8.17942C108.37 7.88475 107.86 7.73741 107.296 7.73741C106.719 7.73741 106.203 7.87861 105.749 8.16101C105.294 8.43112 104.938 8.81174 104.68 9.30286C104.423 9.7817 104.294 10.3158 104.294 10.9051C104.294 11.4945 104.423 12.0347 104.68 12.5258C104.938 13.0047 105.294 13.3853 105.749 13.6677C106.203 13.9378 106.719 14.0729 107.296 14.0729C107.86 14.0729 108.37 13.9317 108.824 13.6493C109.291 13.3546 109.628 12.9617 109.837 12.4706H111.753C111.495 13.4283 110.954 14.2079 110.132 14.8096C109.321 15.3989 108.407 15.6936 107.388 15.6936C106.479 15.6936 105.65 15.4848 104.901 15.0674C104.152 14.6377 103.563 14.0606 103.133 13.3362C102.704 12.5995 102.489 11.7892 102.489 10.9051Z" fill="white"/>
    <path d="M120.334 7.95842H117.111V15.5094H115.361V7.95842H112.138V6.30088H120.334V7.95842Z" fill="white"/>
    <path d="M128.449 10.8131C129.357 11.2673 129.811 11.9672 129.811 12.9126C129.811 13.6738 129.535 14.3 128.983 14.7911C128.43 15.27 127.669 15.5094 126.699 15.5094H122.076V6.30088H126.699C127.62 6.30088 128.344 6.54031 128.872 7.01915C129.412 7.48571 129.683 8.0812 129.683 8.8056C129.683 9.23533 129.578 9.62823 129.369 9.98429C129.173 10.3281 128.866 10.6043 128.449 10.8131ZM126.496 10.1316C126.951 10.1316 127.294 10.0273 127.528 9.81854C127.761 9.60981 127.878 9.30286 127.878 8.89769C127.878 8.14873 127.417 7.77425 126.496 7.77425H123.789V10.1316H126.496ZM126.515 14.036C127.006 14.036 127.374 13.9317 127.62 13.723C127.878 13.5019 128.007 13.1889 128.007 12.7837C128.007 12.4031 127.878 12.1145 127.62 11.9181C127.374 11.7094 127.006 11.605 126.515 11.605H123.789V14.036H126.515Z" fill="white"/>
    <path d="M135.913 15.6936C135.004 15.6936 134.175 15.4848 133.426 15.0674C132.677 14.6377 132.088 14.0606 131.658 13.3362C131.228 12.5995 131.014 11.7892 131.014 10.9051C131.014 10.0211 131.228 9.21692 131.658 8.49251C132.088 7.75583 132.677 7.17876 133.426 6.76131C134.175 6.33158 135.004 6.11671 135.913 6.11671C136.809 6.11671 137.625 6.33158 138.362 6.76131C139.111 7.17876 139.7 7.75583 140.13 8.49251C140.56 9.21692 140.775 10.0211 140.775 10.9051C140.775 11.7892 140.56 12.5995 140.13 13.3362C139.7 14.0606 139.111 14.6377 138.362 15.0674C137.625 15.4848 136.809 15.6936 135.913 15.6936ZM135.913 14.0729C136.477 14.0729 136.993 13.9378 137.46 13.6677C137.926 13.3853 138.294 13.0047 138.565 12.5258C138.835 12.0347 138.97 11.4945 138.97 10.9051C138.97 10.3158 138.835 9.7817 138.565 9.30286C138.294 8.81174 137.926 8.43112 137.46 8.16101C136.993 7.87861 136.477 7.73741 135.913 7.73741C135.335 7.73741 134.807 7.87861 134.329 8.16101C133.862 8.43112 133.494 8.81174 133.224 9.30286C132.954 9.7817 132.818 10.3158 132.818 10.9051C132.818 11.4945 132.954 12.0347 133.224 12.5258C133.494 13.0047 133.862 13.3853 134.329 13.6677C134.807 13.9378 135.335 14.0729 135.913 14.0729Z" fill="white"/>
    <path d="M157.624 13.8519V17.5353H155.93V15.5094H148.047V6.30088H149.797V13.8519H154.585V6.30088H156.335V13.8519H157.624Z" fill="white"/>
    <path d="M167.846 6.30088V15.5094H166.096V9.83696L161.307 13.8887V15.5094H159.558V6.30088H161.307V11.8628L166.096 7.81108V6.30088H167.846Z" fill="white"/>
    <path d="M178.515 6.30088C179.399 6.30088 180.21 6.50347 180.947 6.90865C181.683 7.31382 182.26 7.87247 182.678 8.5846C183.107 9.28444 183.322 10.058 183.322 10.9051C183.322 11.7523 183.107 12.532 182.678 13.2441C182.26 13.944 181.683 14.4965 180.947 14.9016C180.21 15.3068 179.399 15.5094 178.515 15.5094H177.521V18.6403H175.771V15.5094H174.814C173.917 15.5094 173.101 15.3068 172.364 14.9016C171.627 14.4965 171.044 13.944 170.615 13.2441C170.185 12.532 169.97 11.7523 169.97 10.9051C169.97 10.058 170.185 9.28444 170.615 8.5846C171.044 7.87247 171.627 7.31382 172.364 6.90865C173.101 6.50347 173.917 6.30088 174.814 6.30088H175.771V2.52539H177.521V6.30088H178.515ZM175.771 13.8887V7.92158H174.869C174.292 7.92158 173.764 8.05664 173.285 8.32676C172.818 8.5846 172.45 8.94066 172.18 9.39495C171.91 9.84923 171.775 10.3526 171.775 10.9051C171.775 11.4577 171.91 11.9611 172.18 12.4153C172.45 12.8696 172.818 13.2318 173.285 13.5019C173.764 13.7598 174.292 13.8887 174.869 13.8887H175.771ZM178.46 13.8887C179.025 13.8887 179.541 13.7598 180.007 13.5019C180.474 13.2318 180.842 12.8696 181.112 12.4153C181.382 11.9611 181.517 11.4577 181.517 10.9051C181.517 10.3526 181.382 9.84923 181.112 9.39495C180.842 8.94066 180.474 8.5846 180.007 8.32676C179.541 8.05664 179.025 7.92158 178.46 7.92158H177.521V13.8887H178.46Z" fill="white"/>
    <path d="M190.301 6.11671C191.111 6.11671 191.848 6.32544 192.511 6.74289C193.174 7.14807 193.696 7.71286 194.076 8.43726C194.457 9.16166 194.647 9.98429 194.647 10.9051C194.647 11.826 194.457 12.6486 194.076 13.373C193.696 14.0974 193.174 14.6684 192.511 15.0858C191.848 15.491 191.111 15.6936 190.301 15.6936C189.687 15.6936 189.11 15.5585 188.57 15.2884C188.029 15.006 187.569 14.6192 187.188 14.1281V18.6403H185.439V6.30088H187.096V7.79266C187.489 7.26471 187.962 6.8534 188.514 6.55872C189.067 6.26405 189.662 6.11671 190.301 6.11671ZM190.006 14.0729C190.546 14.0729 191.031 13.9378 191.461 13.6677C191.891 13.3976 192.229 13.0231 192.474 12.5443C192.72 12.0531 192.842 11.5068 192.842 10.9051C192.842 10.3035 192.72 9.76329 192.474 9.28444C192.229 8.79332 191.891 8.4127 191.461 8.14259C191.031 7.87247 190.546 7.73741 190.006 7.73741C189.466 7.73741 188.975 7.87247 188.533 8.14259C188.091 8.4127 187.747 8.79332 187.502 9.28444C187.256 9.76329 187.133 10.3035 187.133 10.9051C187.133 11.5068 187.256 12.0531 187.502 12.5443C187.747 13.0231 188.091 13.3976 188.533 13.6677C188.975 13.9378 189.466 14.0729 190.006 14.0729Z" fill="white"/>
    <path d="M200.93 15.6936C200.021 15.6936 199.192 15.4848 198.443 15.0674C197.694 14.6377 197.105 14.0606 196.675 13.3362C196.246 12.5995 196.031 11.7892 196.031 10.9051C196.031 10.0211 196.246 9.21692 196.675 8.49251C197.105 7.75583 197.694 7.17876 198.443 6.76131C199.192 6.33158 200.021 6.11671 200.93 6.11671C201.826 6.11671 202.643 6.33158 203.379 6.76131C204.128 7.17876 204.717 7.75583 205.147 8.49251C205.577 9.21692 205.792 10.0211 205.792 10.9051C205.792 11.7892 205.577 12.5995 205.147 13.3362C204.717 14.0606 204.128 14.6377 203.379 15.0674C202.643 15.4848 201.826 15.6936 200.93 15.6936ZM200.93 14.0729C201.495 14.0729 202.01 13.9378 202.477 13.6677C202.943 13.3853 203.312 13.0047 203.582 12.5258C203.852 12.0347 203.987 11.4945 203.987 10.9051C203.987 10.3158 203.852 9.7817 203.582 9.30286C203.312 8.81174 202.943 8.43112 202.477 8.16101C202.01 7.87861 201.495 7.73741 200.93 7.73741C200.353 7.73741 199.825 7.87861 199.346 8.16101C198.879 8.43112 198.511 8.81174 198.241 9.30286C197.971 9.7817 197.836 10.3158 197.836 10.9051C197.836 11.4945 197.971 12.0347 198.241 12.5258C198.511 13.0047 198.879 13.3853 199.346 13.6677C199.825 13.9378 200.353 14.0729 200.93 14.0729Z" fill="white"/>
    <path d="M214.275 10.8131C215.183 11.2673 215.638 11.9672 215.638 12.9126C215.638 13.6738 215.361 14.3 214.809 14.7911C214.256 15.27 213.495 15.5094 212.525 15.5094H207.903V6.30088H212.525C213.446 6.30088 214.171 6.54031 214.698 7.01915C215.239 7.48571 215.509 8.0812 215.509 8.8056C215.509 9.23533 215.404 9.62823 215.196 9.98429C214.999 10.3281 214.692 10.6043 214.275 10.8131ZM212.323 10.1316C212.777 10.1316 213.121 10.0273 213.354 9.81854C213.587 9.60981 213.704 9.30286 213.704 8.89769C213.704 8.14873 213.244 7.77425 212.323 7.77425H209.615V10.1316H212.323ZM212.341 14.036C212.832 14.036 213.201 13.9317 213.446 13.723C213.704 13.5019 213.833 13.1889 213.833 12.7837C213.833 12.4031 213.704 12.1145 213.446 11.9181C213.201 11.7094 212.832 11.605 212.341 11.605H209.615V14.036H212.341Z" fill="white"/>
    <path d="M221.739 15.6936C220.83 15.6936 220.001 15.4848 219.253 15.0674C218.504 14.6377 217.914 14.0606 217.484 13.3362C217.055 12.5995 216.84 11.7892 216.84 10.9051C216.84 10.0211 217.055 9.21692 217.484 8.49251C217.914 7.75583 218.504 7.17876 219.253 6.76131C220.001 6.33158 220.83 6.11671 221.739 6.11671C222.635 6.11671 223.452 6.33158 224.188 6.76131C224.937 7.17876 225.527 7.75583 225.956 8.49251C226.386 9.21692 226.601 10.0211 226.601 10.9051C226.601 11.7892 226.386 12.5995 225.956 13.3362C225.527 14.0606 224.937 14.6377 224.188 15.0674C223.452 15.4848 222.635 15.6936 221.739 15.6936ZM221.739 14.0729C222.304 14.0729 222.819 13.9378 223.286 13.6677C223.752 13.3853 224.121 13.0047 224.391 12.5258C224.661 12.0347 224.796 11.4945 224.796 10.9051C224.796 10.3158 224.661 9.7817 224.391 9.30286C224.121 8.81174 223.752 8.43112 223.286 8.16101C222.819 7.87861 222.304 7.73741 221.739 7.73741C221.162 7.73741 220.634 7.87861 220.155 8.16101C219.688 8.43112 219.32 8.81174 219.05 9.30286C218.78 9.7817 218.645 10.3158 218.645 10.9051C218.645 11.4945 218.78 12.0347 219.05 12.5258C219.32 13.0047 219.688 13.3853 220.155 13.6677C220.634 13.9378 221.162 14.0729 221.739 14.0729Z" fill="white"/>
    <path d="M236.999 6.30088V15.5094H235.25V9.83696L230.461 13.8887V15.5094H228.712V6.30088H230.461V11.8628L235.25 7.81108V6.30088H236.999ZM232.948 5.39845C231.99 5.39845 231.204 5.14675 230.59 4.64335C229.976 4.13995 229.633 3.46466 229.559 2.61748H231.069C231.13 3.08404 231.327 3.45238 231.658 3.7225C231.99 3.98034 232.42 4.10926 232.948 4.10926C233.476 4.10926 233.905 3.98034 234.237 3.7225C234.568 3.45238 234.765 3.08404 234.826 2.61748H236.336C236.263 3.46466 235.919 4.13995 235.305 4.64335C234.691 5.14675 233.905 5.39845 232.948 5.39845Z" fill="white"/>
    <path d="M60.1654 32.56V36.2434H58.471V34.2175H51.583V36.2434H49.8887V32.56H51.0305C51.5462 31.8724 51.9452 30.9639 52.2276 29.8343C52.51 28.6924 52.6512 27.4278 52.6512 26.0404V25.009H58.8762V32.56H60.1654ZM57.1634 32.6153V26.5745H54.2903C54.2044 29.1528 53.7133 31.1664 52.817 32.6153H57.1634Z" fill="white"/>
    <path d="M65.9853 34.4017C65.0767 34.4017 64.248 34.193 63.499 33.7755C62.7501 33.3458 62.1607 32.7687 61.731 32.0443C61.3012 31.3076 61.0864 30.4973 61.0864 29.6133C61.0864 28.7293 61.3012 27.925 61.731 27.2006C62.1607 26.464 62.7501 25.8869 63.499 25.4694C64.248 25.0397 65.0767 24.8248 65.9853 24.8248C66.8816 24.8248 67.6981 25.0397 68.4348 25.4694C69.1837 25.8869 69.7731 26.464 70.2028 27.2006C70.6325 27.925 70.8474 28.7293 70.8474 29.6133C70.8474 30.4973 70.6325 31.3076 70.2028 32.0443C69.7731 32.7687 69.1837 33.3458 68.4348 33.7755C67.6981 34.193 66.8816 34.4017 65.9853 34.4017ZM65.9853 32.781C66.5501 32.781 67.0658 32.6459 67.5323 32.3758C67.9989 32.0934 68.3672 31.7128 68.6374 31.234C68.9075 30.7429 69.0425 30.2026 69.0425 29.6133C69.0425 29.0239 68.9075 28.4898 68.6374 28.011C68.3672 27.5199 67.9989 27.1393 67.5323 26.8691C67.0658 26.5867 66.5501 26.4455 65.9853 26.4455C65.4082 26.4455 64.8803 26.5867 64.4014 26.8691C63.9349 27.1393 63.5665 27.5199 63.2964 28.011C63.0263 28.4898 62.8912 29.0239 62.8912 29.6133C62.8912 30.2026 63.0263 30.7429 63.2964 31.234C63.5665 31.7128 63.9349 32.0934 64.4014 32.3758C64.8803 32.6459 65.4082 32.781 65.9853 32.781Z" fill="white"/>
    <path d="M72.2193 29.6133C72.2193 28.7293 72.4342 27.925 72.8639 27.2006C73.2937 26.464 73.883 25.8869 74.632 25.4694C75.3809 25.0397 76.2097 24.8248 77.1183 24.8248C78.1373 24.8248 79.0521 25.1257 79.8624 25.7273C80.685 26.3166 81.2253 27.0901 81.4831 28.0478H79.5677C79.359 27.5567 79.0214 27.1699 78.5548 26.8876C78.1005 26.5929 77.591 26.4455 77.0262 26.4455C76.4491 26.4455 75.9334 26.5867 75.4792 26.8691C75.0249 27.1393 74.6688 27.5199 74.411 28.011C74.1531 28.4898 74.0242 29.0239 74.0242 29.6133C74.0242 30.2026 74.1531 30.7429 74.411 31.234C74.6688 31.7128 75.0249 32.0934 75.4792 32.3758C75.9334 32.6459 76.4491 32.781 77.0262 32.781C77.591 32.781 78.1005 32.6398 78.5548 32.3574C79.0214 32.0627 79.359 31.6698 79.5677 31.1787H81.4831C81.2253 32.1364 80.685 32.9161 79.8624 33.5177C79.0521 34.107 78.1373 34.4017 77.1183 34.4017C76.2097 34.4017 75.3809 34.193 74.632 33.7755C73.883 33.3458 73.2937 32.7687 72.8639 32.0443C72.4342 31.3076 72.2193 30.4973 72.2193 29.6133Z" fill="white"/>
    <path d="M90.0644 26.6665H86.8415V34.2175H85.0918V26.6665H81.8689V25.009H90.0644V26.6665Z" fill="white"/>
    <path d="M100.702 25.009L96.227 35.2489C95.9937 35.8751 95.6683 36.3846 95.2509 36.7775C94.8334 37.1827 94.2195 37.3853 93.4091 37.3853C92.8321 37.3853 92.3839 37.373 92.0647 37.3484V35.6909C92.4085 35.7155 92.8198 35.7277 93.2987 35.7277C93.6424 35.7277 93.9126 35.6356 94.109 35.4515C94.3177 35.2673 94.4896 35.0156 94.6247 34.6964L94.9009 34.0518L90.4256 25.009H92.4699L95.7665 32.0812L98.8606 25.009H100.702Z" fill="white"/>
    <path d="M110.706 34.2175H108.956V26.6665H104.168V34.2175H102.418V25.009H110.706V34.2175Z" fill="white"/>
    <path d="M121.947 25.009V34.2175H120.197V30.442H115.409V34.2175H113.659V25.009H115.409V28.7845H120.197V25.009H121.947Z" fill="white"/>
    <path d="M128.97 34.4017C128.062 34.4017 127.233 34.193 126.484 33.7755C125.735 33.3458 125.146 32.7687 124.716 32.0443C124.286 31.3076 124.071 30.4973 124.071 29.6133C124.071 28.7293 124.286 27.925 124.716 27.2006C125.146 26.464 125.735 25.8869 126.484 25.4694C127.233 25.0397 128.062 24.8248 128.97 24.8248C129.866 24.8248 130.683 25.0397 131.42 25.4694C132.169 25.8869 132.758 26.464 133.188 27.2006C133.617 27.925 133.832 28.7293 133.832 29.6133C133.832 30.4973 133.617 31.3076 133.188 32.0443C132.758 32.7687 132.169 33.3458 131.42 33.7755C130.683 34.193 129.866 34.4017 128.97 34.4017ZM128.97 32.781C129.535 32.781 130.051 32.6459 130.517 32.3758C130.984 32.0934 131.352 31.7128 131.622 31.234C131.892 30.7429 132.027 30.2026 132.027 29.6133C132.027 29.0239 131.892 28.4898 131.622 28.011C131.352 27.5199 130.984 27.1393 130.517 26.8691C130.051 26.5867 129.535 26.4455 128.97 26.4455C128.393 26.4455 127.865 26.5867 127.386 26.8691C126.92 27.1393 126.551 27.5199 126.281 28.011C126.011 28.4898 125.876 29.0239 125.876 29.6133C125.876 30.2026 126.011 30.7429 126.281 31.234C126.551 31.7128 126.92 32.0934 127.386 32.3758C127.865 32.6459 128.393 32.781 128.97 32.781Z" fill="white"/>
    <path d="M135.204 29.6133C135.204 28.7293 135.419 27.925 135.849 27.2006C136.279 26.464 136.868 25.8869 137.617 25.4694C138.366 25.0397 139.195 24.8248 140.103 24.8248C141.122 24.8248 142.037 25.1257 142.847 25.7273C143.67 26.3166 144.21 27.0901 144.468 28.0478H142.553C142.344 27.5567 142.006 27.1699 141.54 26.8876C141.085 26.5929 140.576 26.4455 140.011 26.4455C139.434 26.4455 138.918 26.5867 138.464 26.8691C138.01 27.1393 137.654 27.5199 137.396 28.011C137.138 28.4898 137.009 29.0239 137.009 29.6133C137.009 30.2026 137.138 30.7429 137.396 31.234C137.654 31.7128 138.01 32.0934 138.464 32.3758C138.918 32.6459 139.434 32.781 140.011 32.781C140.576 32.781 141.085 32.6398 141.54 32.3574C142.006 32.0627 142.344 31.6698 142.553 31.1787H144.468C144.21 32.1364 143.67 32.9161 142.847 33.5177C142.037 34.107 141.122 34.4017 140.103 34.4017C139.195 34.4017 138.366 34.193 137.617 33.7755C136.868 33.3458 136.279 32.7687 135.849 32.0443C135.419 31.3076 135.204 30.4973 135.204 29.6133Z" fill="white"/>
    <path d="M153.049 26.6665H149.826V34.2175H148.077V26.6665H144.854V25.009H153.049V26.6665Z" fill="white"/>
    <path d="M163.079 25.009V34.2175H161.33V28.5451L156.541 32.5968V34.2175H154.792V25.009H156.541V30.571L161.33 26.5192V25.009H163.079Z" fill="white"/>
  </symbol>
    
  <symbol id="benefit1" width="80" height="80" viewBox="0 0 80 80" fill="none" xmlns="http://www.w3.org/2000/svg">
    <path fill-rule="evenodd" clip-rule="evenodd" d="M15.5425 45.7949L12.7066 46.4872L12.5117 33.7641L19.1374 32.2923L22.0348 33.4667L15.3989 34.959L15.5425 45.7949Z" fill="#74D329"/>
    <path fill-rule="evenodd" clip-rule="evenodd" d="M12.7079 46.4872L15.5438 45.7949L15.5694 47.7538L18.6361 49.1128L12.7694 50.5743L5.30273 47.1949L11.1386 45.7897L12.7079 46.4872Z" fill="#C5C6C6"/>
    <path fill-rule="evenodd" clip-rule="evenodd" d="M12.7084 46.4872L11.1392 45.7897L5.22125 43.1641L4.96484 30.6256L12.5136 33.7641L12.7084 46.4872Z" fill="#DDF5B6"/>
    <path fill-rule="evenodd" clip-rule="evenodd" d="M19.1392 32.2923L12.5136 33.7641L4.96484 30.6256L11.5546 29.2102L12.452 29.5743L15.3187 28.959L15.3443 30.7487L19.1392 32.2923Z" fill="#89E440"/>
    <path fill-rule="evenodd" clip-rule="evenodd" d="M12.4511 29.5743L11.5537 29.2102L4.87678 26.5025L4.61523 13.6718L12.2511 16.5538L12.4511 29.5743Z" fill="#F3F3F3"/>
    <path fill-rule="evenodd" clip-rule="evenodd" d="M12.9591 63.0051L5.54889 59.4461L5.30273 47.1949L12.7694 50.5743L12.9591 63.0051Z" fill="#F3F3F3"/>
    <path fill-rule="evenodd" clip-rule="evenodd" d="M15.7593 62.2513L12.9593 63.0051L12.7695 50.5744L18.6362 49.1128L21.4977 50.3846L15.6259 51.8667L15.7593 62.2513Z" fill="#B1B1B1"/>
    <path fill-rule="evenodd" clip-rule="evenodd" d="M14.9947 11.7231L19.8563 13.4974L22.6819 14.5231L12.2511 16.5539L4.61523 13.6718L14.9947 11.7231Z" fill="#C5C6C6"/>
    <path fill-rule="evenodd" clip-rule="evenodd" d="M15.3186 28.959L12.452 29.5744L12.252 16.5538L22.6827 14.5231L22.693 16.1692L15.1699 17.6513L15.3186 28.959Z" fill="#B1B1B1"/>
    <path fill-rule="evenodd" clip-rule="evenodd" d="M22.6916 16.1692L22.6814 14.5231L19.8557 13.4974L19.8301 10.8154L27.5378 13.5743L27.5532 16.2974L25.6147 15.5897L22.6916 16.1692Z" fill="#F3F3F3"/>
    <path fill-rule="evenodd" clip-rule="evenodd" d="M63.5902 12.3949L63.5543 14.0769L57.2158 15.3949L57.1697 18.2308L54.0723 17.159L54.1133 14.3385L63.5902 12.3949Z" fill="#B1B1B1"/>
    <path fill-rule="evenodd" clip-rule="evenodd" d="M54.1128 14.3384L54.0718 17.159L52.0667 16.4667L48.5231 17.2L48.5385 15.482L45.959 14.5846L45.9795 11.5692L54.1128 14.3384Z" fill="#F3F3F3"/>
    <path fill-rule="evenodd" clip-rule="evenodd" d="M63.5888 12.3949L54.1118 14.3384L45.9785 11.5692L52.4349 10.2974L55.4298 9.70767L63.5888 12.3949Z" fill="#C5C6C6"/>
    <path fill-rule="evenodd" clip-rule="evenodd" d="M52.4359 10.2974L45.9795 11.5692L45.959 14.5846L43 13.559L43.0154 10.5641L52.4564 8.72305L52.4359 10.2974Z" fill="#B1B1B1"/>
    <path fill-rule="evenodd" clip-rule="evenodd" d="M74.4298 45.5897L68.3118 47.2256L65.1016 48.082L65.3682 35.4205L74.7734 33.1128L74.4298 45.5897Z" fill="#74D329"/>
    <path fill-rule="evenodd" clip-rule="evenodd" d="M65.3697 35.4205L65.1031 48.082L62.7749 47.1538L60.0979 46.0821L60.262 36.6718L56.9082 35.3949L56.9441 33.282L58.6108 32.8872L65.3697 35.4205Z" fill="#DDF5B6"/>
    <path fill-rule="evenodd" clip-rule="evenodd" d="M62.7741 47.1538L65.1023 48.082L68.3126 47.2256L74.3177 49.6051L65.0151 52.1538L59.0254 49.7077L60.0408 49.4359L60.0664 47.8667L62.7741 47.1538Z" fill="#C5C6C6"/>
    <path fill-rule="evenodd" clip-rule="evenodd" d="M74.7735 33.1128L65.3684 35.4205L58.6094 32.8872L60.3376 32.4769L60.353 31.4667L63.2248 30.7846L63.8043 30.6513L65.4555 31.2564L67.994 30.6513L74.7735 33.1128Z" fill="#89E440"/>
    <path fill-rule="evenodd" clip-rule="evenodd" d="M63.2253 30.7846L60.3535 31.4667L60.3894 29.6L60.7279 29.5231L63.2356 30.441L63.2253 30.7846Z" fill="#74D329"/>
    <path fill-rule="evenodd" clip-rule="evenodd" d="M60.7271 29.5231L60.3887 29.6V29.4L60.7271 29.5231Z" fill="#89E440"/>
    <path fill-rule="evenodd" clip-rule="evenodd" d="M56.9431 33.282L56.9072 35.3949L53.8457 34.2308L53.8508 34.0205L56.9431 33.282Z" fill="#74D329"/>
    <path fill-rule="evenodd" clip-rule="evenodd" d="M53.8502 34.0205L53.845 34.2308L53.5117 34.1026L53.8502 34.0205Z" fill="#DDF5B6"/>
    <path fill-rule="evenodd" clip-rule="evenodd" d="M63.2366 30.441L60.7289 29.5231L60.3904 29.4L60.5699 19.4102L57.1699 18.2308L57.2161 15.3949L65.734 18.2923L65.4571 31.2564L63.8058 30.6513L63.2366 30.441Z" fill="#F3F3F3"/>
    <path fill-rule="evenodd" clip-rule="evenodd" d="M64.7529 64.5282L59.8094 62.3846L59.9632 53.5384L56.6504 52.159L56.676 50.3333L59.0248 49.7077L65.0145 52.1538L64.7529 64.5282Z" fill="#F3F3F3"/>
    <path fill-rule="evenodd" clip-rule="evenodd" d="M73.9847 61.8L64.7539 64.5282L65.0154 52.1538L74.318 49.6051L73.9847 61.8Z" fill="#B1B1B1"/>
    <path fill-rule="evenodd" clip-rule="evenodd" d="M56.6767 50.3333L56.651 52.159L53.9844 51.0513L56.6767 50.3333Z" fill="#B1B1B1"/>
    <path fill-rule="evenodd" clip-rule="evenodd" d="M62.7741 47.1538L60.0664 47.8666L60.0972 46.082L62.7741 47.1538Z" fill="#B1B1B1"/>
    <path fill-rule="evenodd" clip-rule="evenodd" d="M74.8878 29.0103L67.9955 30.6513L65.457 31.2564L65.734 18.2923L75.2417 16.241L74.8878 29.0103Z" fill="#B1B1B1"/>
    <path fill-rule="evenodd" clip-rule="evenodd" d="M57.2148 15.3949L63.5533 14.0769L66.702 13.4256L75.2405 16.241L65.7328 18.2923L57.2148 15.3949Z" fill="#C5C6C6"/>
    <path fill-rule="evenodd" clip-rule="evenodd" d="M15.5696 47.7538L15.544 45.7949L15.4004 34.959L23.3183 38.2513L23.4209 51.2359L21.4978 50.3846L18.6363 49.1128L15.5696 47.7538Z" fill="#DDF5B6"/>
    <path fill-rule="evenodd" clip-rule="evenodd" d="M23.4209 51.2359L23.3184 38.2513L29.9799 36.6923L33.0158 37.9282L26.344 39.5077L26.4055 50.4769L23.4209 51.2359Z" fill="#74D329"/>
    <path fill-rule="evenodd" clip-rule="evenodd" d="M23.4199 51.2359L26.4045 50.4769L26.4147 52.5641L29.3532 53.8667L23.4506 55.4103L15.625 51.8667L21.4968 50.3846L23.4199 51.2359Z" fill="#C5C6C6"/>
    <path fill-rule="evenodd" clip-rule="evenodd" d="M29.9799 36.6923L23.3183 38.2513L15.4004 34.959L22.0363 33.4667L23.2824 33.9744L26.3081 33.2923L26.3183 35.2051L29.9799 36.6923Z" fill="#89E440"/>
    <path fill-rule="evenodd" clip-rule="evenodd" d="M23.2827 33.9744L22.0366 33.4667L19.1391 32.2923L15.3443 30.7487L15.3186 28.959L15.1699 17.6513L23.1802 20.6718L23.2827 33.9744Z" fill="#F3F3F3"/>
    <path fill-rule="evenodd" clip-rule="evenodd" d="M15.7891 64.3641L15.7583 62.2513L15.625 51.8667L23.4506 55.4103L23.5481 68.0872L15.7891 64.3641Z" fill="#F3F3F3"/>
    <path fill-rule="evenodd" clip-rule="evenodd" d="M26.5025 67.2564L23.5486 68.0872L23.4512 55.4103L29.3537 53.8667L32.3537 55.2L26.4409 56.7641L26.5025 67.2564Z" fill="#B1B1B1"/>
    <path fill-rule="evenodd" clip-rule="evenodd" d="M22.693 16.1692L25.6161 15.5897L27.5545 16.2974L30.4879 17.3641L33.6725 18.5231L23.1802 20.6718L15.1699 17.6513L22.693 16.1692Z" fill="#C5C6C6"/>
    <path fill-rule="evenodd" clip-rule="evenodd" d="M33.6722 18.5231L30.4875 17.3641L30.4824 14.6308L38.5593 17.5231L38.5491 20.3026L36.7491 19.6462L33.6722 20.2821V18.5231Z" fill="#F3F3F3"/>
    <path fill-rule="evenodd" clip-rule="evenodd" d="M29.354 53.8667L26.4155 52.5641L26.4053 50.4769L26.3438 39.5077L34.6514 42.959V56.2154L32.354 55.2L29.354 53.8667Z" fill="#DDF5B6"/>
    <path fill-rule="evenodd" clip-rule="evenodd" d="M26.5029 67.2564L26.4414 56.7641L34.6517 60.4769V73.4205L26.5132 69.5128L26.5029 67.2564Z" fill="#F3F3F3"/>
    <path fill-rule="evenodd" clip-rule="evenodd" d="M29.9787 36.6923L26.3172 35.2051L26.3069 33.2923L26.2402 21.8256L34.6505 25V38.5897L33.0146 37.9282L29.9787 36.6923Z" fill="#F3F3F3"/>
    <path fill-rule="evenodd" clip-rule="evenodd" d="M36.7479 19.6461L38.5479 20.3026L42.071 21.5846L45.2043 22.7231L34.6505 25L26.2402 21.8256L33.671 20.282L36.7479 19.6461Z" fill="#C5C6C6"/>
    <path fill-rule="evenodd" clip-rule="evenodd" d="M26.2412 21.8256L26.3079 33.2923L23.2823 33.9744L23.1797 20.6718L33.672 18.5231V20.282L26.2412 21.8256Z" fill="#B1B1B1"/>
    <path fill-rule="evenodd" clip-rule="evenodd" d="M45.2056 22.7231L42.0723 21.5846L42.0876 18.5385L50.5595 21.5692L50.4159 34.8359L48.7697 34.2051L48.3646 34.0513L45.7082 33.0256L45.1338 32.8051L45.2056 22.7231Z" fill="#F3F3F3"/>
    <path fill-rule="evenodd" clip-rule="evenodd" d="M53.8457 34.2308L56.9073 35.3949L60.2611 36.6718L50.3688 39.1026L43.6406 36.4513L45.1073 36.1026L45.1124 35.0667L48.3637 34.2974L48.7688 34.2051L50.415 34.8359L53.5124 34.1026L53.8457 34.2308Z" fill="#89E440"/>
    <path fill-rule="evenodd" clip-rule="evenodd" d="M48.7684 34.2051L48.3633 34.2974V34.0513L48.7684 34.2051Z" fill="#DDF5B6"/>
    <path fill-rule="evenodd" clip-rule="evenodd" d="M59.9648 53.5385L59.811 62.3846L59.7443 66.0051L50.0469 68.8718L50.1802 56.2205L59.9648 53.5385Z" fill="#B1B1B1"/>
    <path fill-rule="evenodd" clip-rule="evenodd" d="M56.6515 52.159L59.9643 53.5384L50.1797 56.2205L44.2207 53.6615L44.9848 53.4564L44.9951 51.8564L47.913 51.082L50.2258 52.0564L53.9848 51.0513L56.6515 52.159Z" fill="#C5C6C6"/>
    <path fill-rule="evenodd" clip-rule="evenodd" d="M53.9836 51.0513L50.2246 52.0564L50.3682 39.1026L60.2605 36.6718L60.0964 46.082L60.0656 47.8667L60.04 49.4359L59.0246 49.7077L56.6759 50.3333L53.9836 51.0513Z" fill="#74D329"/>
    <path fill-rule="evenodd" clip-rule="evenodd" d="M60.3391 32.4769L58.6109 32.8872L56.9442 33.282L53.8519 34.0205L53.5135 34.1026L50.416 34.8359L50.5596 21.5692L60.5699 19.4102L60.3904 29.4V29.6L60.3545 31.4667L60.3391 32.4769Z" fill="#B1B1B1"/>
    <path fill-rule="evenodd" clip-rule="evenodd" d="M52.0674 16.4667L54.0725 17.159L57.1699 18.2308L60.5699 19.4103L50.5597 21.5692L42.0879 18.5385L48.5238 17.2L52.0674 16.4667Z" fill="#C5C6C6"/>
    <path fill-rule="evenodd" clip-rule="evenodd" d="M45.9593 14.5846L48.5388 15.482L38.5593 17.5231L30.4824 14.6308L37.467 13.2513L40.426 12.6667L43.0004 13.559L45.9593 14.5846Z" fill="#C5C6C6"/>
    <path fill-rule="evenodd" clip-rule="evenodd" d="M40.4256 12.6667L37.4666 13.2513L37.4717 11.641L35.2461 10.8718V7.91794L43.0153 10.5641L43 13.559L40.4256 12.6667Z" fill="#F3F3F3"/>
    <path fill-rule="evenodd" clip-rule="evenodd" d="M35.2455 10.8718L37.4711 11.641L27.5378 13.5743L19.8301 10.8154L29.7224 8.95895L35.2455 10.8718Z" fill="#C5C6C6"/>
    <path fill-rule="evenodd" clip-rule="evenodd" d="M30.4878 17.3641L27.5544 16.2974L27.5391 13.5744L37.4724 11.641L37.4673 13.2513L30.4827 14.6308L30.4878 17.3641Z" fill="#B1B1B1"/>
    <path fill-rule="evenodd" clip-rule="evenodd" d="M45.1068 36.1026L43.6401 36.4513L41.994 36.8462L38.5017 37.6718L38.3632 37.7077L34.6504 38.5898V25L45.2042 22.7231L45.1324 32.8051L45.1273 33.159L45.1119 35.0667L45.1068 36.1026Z" fill="#B1B1B1"/>
    <path fill-rule="evenodd" clip-rule="evenodd" d="M34.6514 38.5897L38.3643 37.7077L38.5027 37.7641L41.9796 39.159L45.0771 40.4L34.6514 42.959L26.3438 39.5077L33.0155 37.9282L34.6514 38.5897Z" fill="#89E440"/>
    <path fill-rule="evenodd" clip-rule="evenodd" d="M38.5017 37.7641L38.3633 37.7077L38.5017 37.6718V37.7641Z" fill="#FF7272"/>
    <path fill-rule="evenodd" clip-rule="evenodd" d="M45.076 40.4L41.9785 39.159L41.9939 36.8461L43.6401 36.4513L50.3683 39.1025L50.2247 52.0564L47.9119 51.082L45.0093 49.8615L45.076 40.4Z" fill="#DDF5B6"/>
    <path fill-rule="evenodd" clip-rule="evenodd" d="M45.0095 49.8615L47.9121 51.0821L44.9941 51.8564L45.0095 49.8615Z" fill="#B1B1B1"/>
    <path fill-rule="evenodd" clip-rule="evenodd" d="M45.076 40.4L45.0094 49.8615L44.994 51.8564L44.9837 53.4564L44.2196 53.6615L41.9017 54.282L39.0042 55.0564L34.6504 56.2154V42.959L45.076 40.4Z" fill="#74D329"/>
    <path fill-rule="evenodd" clip-rule="evenodd" d="M34.6517 56.2154L39.0055 55.0564L41.8927 56.3179L44.9542 57.6564L34.6517 60.4769L26.4414 56.7641L32.3542 55.2L34.6517 56.2154Z" fill="#C5C6C6"/>
    <path fill-rule="evenodd" clip-rule="evenodd" d="M44.9541 57.6564L41.8926 56.3179L41.9028 54.282L44.2208 53.6615L50.1798 56.2205L50.0464 68.8718L44.8874 66.5231L44.9541 57.6564Z" fill="#F3F3F3"/>
    <path fill-rule="evenodd" clip-rule="evenodd" d="M44.953 57.6564L44.8863 66.5231L44.8606 70.4051L34.6504 73.4205V60.4769L44.953 57.6564Z" fill="#B1B1B1"/>
    <path fill-rule="evenodd" clip-rule="evenodd" d="M41.9789 39.159L38.502 37.7641V37.6718L41.9943 36.8461L41.9789 39.159Z" fill="#74D329"/>
    <path fill-rule="evenodd" clip-rule="evenodd" d="M42.0719 21.5846L38.5488 20.3026L38.5591 17.5231L48.5386 15.4821L48.5232 17.2L42.0873 18.5385L42.0719 21.5846Z" fill="#B1B1B1"/>
    <path fill-rule="evenodd" clip-rule="evenodd" d="M45.7082 33.0256L48.3646 34.0513V34.2974L45.1133 35.0667L45.1287 33.159L45.7082 33.0256Z" fill="#74D329"/>
    <path fill-rule="evenodd" clip-rule="evenodd" d="M39.0059 55.0564L41.9033 54.282L41.893 56.3179L39.0059 55.0564Z" fill="#B1B1B1"/>
    <path fill-rule="evenodd" clip-rule="evenodd" d="M45.1289 33.159L45.134 32.8051L45.7084 33.0256L45.1289 33.159Z" fill="#89E440"/>
    <path fill-rule="evenodd" clip-rule="evenodd" d="M52.4563 8.72307L43.0153 10.5641L35.2461 7.91794L44.6564 6.15384L52.4563 8.72307Z" fill="#C5C6C6"/>
    <path fill-rule="evenodd" clip-rule="evenodd" d="M15.5425 45.7949L12.7066 46.4872L12.5117 33.7641L19.1374 32.2923L22.0348 33.4667L15.3989 34.959L15.5425 45.7949Z" fill="#74D329"/>
    <path fill-rule="evenodd" clip-rule="evenodd" d="M12.7079 46.4872L15.5438 45.7949L15.5694 47.7538L18.6361 49.1128L12.7694 50.5743L5.30273 47.1949L11.1386 45.7897L12.7079 46.4872Z" fill="#C5C6C6"/>
    <path fill-rule="evenodd" clip-rule="evenodd" d="M12.7084 46.4872L11.1392 45.7897L5.22125 43.1641L4.96484 30.6256L12.5136 33.7641L12.7084 46.4872Z" fill="#DDF5B6"/>
    <path fill-rule="evenodd" clip-rule="evenodd" d="M19.1392 32.2923L12.5136 33.7641L4.96484 30.6256L11.5546 29.2102L12.452 29.5743L15.3187 28.959L15.3443 30.7487L19.1392 32.2923Z" fill="#89E440"/>
    <path fill-rule="evenodd" clip-rule="evenodd" d="M12.4511 29.5743L11.5537 29.2102L4.87678 26.5025L4.61523 13.6718L12.2511 16.5538L12.4511 29.5743Z" fill="#F3F3F3"/>
    <path fill-rule="evenodd" clip-rule="evenodd" d="M12.9591 63.0051L5.54889 59.4461L5.30273 47.1949L12.7694 50.5743L12.9591 63.0051Z" fill="#F3F3F3"/>
    <path fill-rule="evenodd" clip-rule="evenodd" d="M15.7593 62.2513L12.9593 63.0051L12.7695 50.5744L18.6362 49.1128L21.4977 50.3846L15.6259 51.8667L15.7593 62.2513Z" fill="#B1B1B1"/>
    <path fill-rule="evenodd" clip-rule="evenodd" d="M14.9947 11.7231L19.8563 13.4974L22.6819 14.5231L12.2511 16.5539L4.61523 13.6718L14.9947 11.7231Z" fill="#C5C6C6"/>
    <path fill-rule="evenodd" clip-rule="evenodd" d="M15.3186 28.959L12.452 29.5744L12.252 16.5538L22.6827 14.5231L22.693 16.1692L15.1699 17.6513L15.3186 28.959Z" fill="#B1B1B1"/>
    <path fill-rule="evenodd" clip-rule="evenodd" d="M22.6916 16.1692L22.6814 14.5231L19.8557 13.4974L19.8301 10.8154L27.5378 13.5743L27.5532 16.2974L25.6147 15.5897L22.6916 16.1692Z" fill="#F3F3F3"/>
    <path fill-rule="evenodd" clip-rule="evenodd" d="M63.5902 12.3949L63.5543 14.0769L57.2158 15.3949L57.1697 18.2308L54.0723 17.159L54.1133 14.3385L63.5902 12.3949Z" fill="#B1B1B1"/>
    <path fill-rule="evenodd" clip-rule="evenodd" d="M54.1128 14.3384L54.0718 17.159L52.0667 16.4667L48.5231 17.2L48.5385 15.482L45.959 14.5846L45.9795 11.5692L54.1128 14.3384Z" fill="#F3F3F3"/>
    <path fill-rule="evenodd" clip-rule="evenodd" d="M63.5888 12.3949L54.1118 14.3384L45.9785 11.5692L52.4349 10.2974L55.4298 9.70767L63.5888 12.3949Z" fill="#C5C6C6"/>
    <path fill-rule="evenodd" clip-rule="evenodd" d="M52.4359 10.2974L45.9795 11.5692L45.959 14.5846L43 13.559L43.0154 10.5641L52.4564 8.72305L52.4359 10.2974Z" fill="#B1B1B1"/>
    <path fill-rule="evenodd" clip-rule="evenodd" d="M74.4298 45.5897L68.3118 47.2256L65.1016 48.082L65.3682 35.4205L74.7734 33.1128L74.4298 45.5897Z" fill="#68BC26"/>
    <path fill-rule="evenodd" clip-rule="evenodd" d="M65.3697 35.4205L65.1031 48.082L62.7749 47.1538L60.0979 46.0821L60.262 36.6718L56.9082 35.3949L56.9441 33.282L58.6108 32.8872L65.3697 35.4205Z" fill="#DDF5B6"/>
    <path fill-rule="evenodd" clip-rule="evenodd" d="M62.7741 47.1538L65.1023 48.082L68.3126 47.2256L74.3177 49.6051L65.0151 52.1538L59.0254 49.7077L60.0408 49.4359L60.0664 47.8667L62.7741 47.1538Z" fill="#C5C6C6"/>
    <path fill-rule="evenodd" clip-rule="evenodd" d="M74.7735 33.1128L65.3684 35.4205L58.6094 32.8872L60.3376 32.4769L60.353 31.4667L63.2248 30.7846L63.8043 30.6513L65.4555 31.2564L67.994 30.6513L74.7735 33.1128Z" fill="#89E440"/>
    <path fill-rule="evenodd" clip-rule="evenodd" d="M63.2253 30.7846L60.3535 31.4667L60.3894 29.6L60.7279 29.5231L63.2356 30.441L63.2253 30.7846Z" fill="#74D329"/>
    <path fill-rule="evenodd" clip-rule="evenodd" d="M60.7271 29.5231L60.3887 29.6V29.4L60.7271 29.5231Z" fill="#89E440"/>
    <path fill-rule="evenodd" clip-rule="evenodd" d="M56.9431 33.282L56.9072 35.3949L53.8457 34.2308L53.8508 34.0205L56.9431 33.282Z" fill="#74D329"/>
    <path fill-rule="evenodd" clip-rule="evenodd" d="M53.8502 34.0205L53.845 34.2308L53.5117 34.1026L53.8502 34.0205Z" fill="#DDF5B6"/>
    <path fill-rule="evenodd" clip-rule="evenodd" d="M63.2366 30.441L60.7289 29.5231L60.3904 29.4L60.5699 19.4102L57.1699 18.2308L57.2161 15.3949L65.734 18.2923L65.4571 31.2564L63.8058 30.6513L63.2366 30.441Z" fill="#F3F3F3"/>
    <path fill-rule="evenodd" clip-rule="evenodd" d="M64.7529 64.5282L59.8094 62.3846L59.9632 53.5384L56.6504 52.159L56.676 50.3333L59.0248 49.7077L65.0145 52.1538L64.7529 64.5282Z" fill="#F3F3F3"/>
    <path fill-rule="evenodd" clip-rule="evenodd" d="M73.9847 61.8L64.7539 64.5282L65.0154 52.1538L74.318 49.6051L73.9847 61.8Z" fill="#B1B1B1"/>
    <path fill-rule="evenodd" clip-rule="evenodd" d="M56.6767 50.3333L56.651 52.159L53.9844 51.0513L56.6767 50.3333Z" fill="#B1B1B1"/>
    <path fill-rule="evenodd" clip-rule="evenodd" d="M62.7741 47.1538L60.0664 47.8666L60.0972 46.082L62.7741 47.1538Z" fill="#B1B1B1"/>
    <path fill-rule="evenodd" clip-rule="evenodd" d="M74.8878 29.0103L67.9955 30.6513L65.457 31.2564L65.734 18.2923L75.2417 16.241L74.8878 29.0103Z" fill="#B1B1B1"/>
    <path fill-rule="evenodd" clip-rule="evenodd" d="M57.2148 15.3949L63.5533 14.0769L66.702 13.4256L75.2405 16.241L65.7328 18.2923L57.2148 15.3949Z" fill="#C5C6C6"/>
    <path fill-rule="evenodd" clip-rule="evenodd" d="M15.5696 47.7538L15.544 45.7949L15.4004 34.959L23.3183 38.2513L23.4209 51.2359L21.4978 50.3846L18.6363 49.1128L15.5696 47.7538Z" fill="#DDF5B6"/>
    <path fill-rule="evenodd" clip-rule="evenodd" d="M23.4209 51.2359L23.3184 38.2513L29.9799 36.6923L33.0158 37.9282L26.344 39.5077L26.4055 50.4769L23.4209 51.2359Z" fill="#74D329"/>
    <path fill-rule="evenodd" clip-rule="evenodd" d="M23.4199 51.2359L26.4045 50.4769L26.4147 52.5641L29.3532 53.8667L23.4506 55.4103L15.625 51.8667L21.4968 50.3846L23.4199 51.2359Z" fill="#C5C6C6"/>
    <path fill-rule="evenodd" clip-rule="evenodd" d="M29.9799 36.6923L23.3183 38.2513L15.4004 34.959L22.0363 33.4667L23.2824 33.9744L26.3081 33.2923L26.3183 35.2051L29.9799 36.6923Z" fill="#89E440"/>
    <path fill-rule="evenodd" clip-rule="evenodd" d="M23.2827 33.9744L22.0366 33.4667L19.1391 32.2923L15.3443 30.7487L15.3186 28.959L15.1699 17.6513L23.1802 20.6718L23.2827 33.9744Z" fill="#F3F3F3"/>
    <path fill-rule="evenodd" clip-rule="evenodd" d="M15.7891 64.3641L15.7583 62.2513L15.625 51.8667L23.4506 55.4103L23.5481 68.0872L15.7891 64.3641Z" fill="#F3F3F3"/>
    <path fill-rule="evenodd" clip-rule="evenodd" d="M26.5025 67.2564L23.5486 68.0872L23.4512 55.4103L29.3537 53.8667L32.3537 55.2L26.4409 56.7641L26.5025 67.2564Z" fill="#B1B1B1"/>
    <path fill-rule="evenodd" clip-rule="evenodd" d="M22.693 16.1692L25.6161 15.5897L27.5545 16.2974L30.4879 17.3641L33.6725 18.5231L23.1802 20.6718L15.1699 17.6513L22.693 16.1692Z" fill="#C5C6C6"/>
    <path fill-rule="evenodd" clip-rule="evenodd" d="M33.6722 18.5231L30.4875 17.3641L30.4824 14.6308L38.5593 17.5231L38.5491 20.3026L36.7491 19.6462L33.6722 20.2821V18.5231Z" fill="#F3F3F3"/>
    <path fill-rule="evenodd" clip-rule="evenodd" d="M29.354 53.8667L26.4155 52.5641L26.4053 50.4769L26.3438 39.5077L34.6514 42.959V56.2154L32.354 55.2L29.354 53.8667Z" fill="#DDF5B6"/>
    <path fill-rule="evenodd" clip-rule="evenodd" d="M26.5029 67.2564L26.4414 56.7641L34.6517 60.4769V73.4205L26.5132 69.5128L26.5029 67.2564Z" fill="#F3F3F3"/>
    <path fill-rule="evenodd" clip-rule="evenodd" d="M29.9787 36.6923L26.3172 35.2051L26.3069 33.2923L26.2402 21.8256L34.6505 25V38.5897L33.0146 37.9282L29.9787 36.6923Z" fill="#F3F3F3"/>
    <path fill-rule="evenodd" clip-rule="evenodd" d="M36.7479 19.6461L38.5479 20.3026L42.071 21.5846L45.2043 22.7231L34.6505 25L26.2402 21.8256L33.671 20.282L36.7479 19.6461Z" fill="#C5C6C6"/>
    <path fill-rule="evenodd" clip-rule="evenodd" d="M26.2412 21.8256L26.3079 33.2923L23.2823 33.9744L23.1797 20.6718L33.672 18.5231V20.282L26.2412 21.8256Z" fill="#B1B1B1"/>
    <path fill-rule="evenodd" clip-rule="evenodd" d="M45.2056 22.7231L42.0723 21.5846L42.0876 18.5385L50.5595 21.5692L50.4159 34.8359L48.7697 34.2051L48.3646 34.0513L45.7082 33.0256L45.1338 32.8051L45.2056 22.7231Z" fill="#F3F3F3"/>
    <path fill-rule="evenodd" clip-rule="evenodd" d="M53.8457 34.2308L56.9073 35.3949L60.2611 36.6718L50.3688 39.1026L43.6406 36.4513L45.1073 36.1026L45.1124 35.0667L48.3637 34.2974L48.7688 34.2051L50.415 34.8359L53.5124 34.1026L53.8457 34.2308Z" fill="#89E440"/>
    <path fill-rule="evenodd" clip-rule="evenodd" d="M48.7684 34.2051L48.3633 34.2974V34.0513L48.7684 34.2051Z" fill="#DDF5B6"/>
    <path fill-rule="evenodd" clip-rule="evenodd" d="M59.9648 53.5385L59.811 62.3846L59.7443 66.0051L50.0469 68.8718L50.1802 56.2205L59.9648 53.5385Z" fill="#B1B1B1"/>
    <path fill-rule="evenodd" clip-rule="evenodd" d="M56.6515 52.159L59.9643 53.5384L50.1797 56.2205L44.2207 53.6615L44.9848 53.4564L44.9951 51.8564L47.913 51.082L50.2258 52.0564L53.9848 51.0513L56.6515 52.159Z" fill="#C5C6C6"/>
    <path fill-rule="evenodd" clip-rule="evenodd" d="M53.9836 51.0513L50.2246 52.0564L50.3682 39.1026L60.2605 36.6718L60.0964 46.082L60.0656 47.8667L60.04 49.4359L59.0246 49.7077L56.6759 50.3333L53.9836 51.0513Z" fill="#68BC26"/>
    <path fill-rule="evenodd" clip-rule="evenodd" d="M60.3391 32.4769L58.6109 32.8872L56.9442 33.282L53.8519 34.0205L53.5135 34.1026L50.416 34.8359L50.5596 21.5692L60.5699 19.4102L60.3904 29.4V29.6L60.3545 31.4667L60.3391 32.4769Z" fill="#B1B1B1"/>
    <path fill-rule="evenodd" clip-rule="evenodd" d="M52.0674 16.4667L54.0725 17.159L57.1699 18.2308L60.5699 19.4103L50.5597 21.5692L42.0879 18.5385L48.5238 17.2L52.0674 16.4667Z" fill="#C5C6C6"/>
    <path fill-rule="evenodd" clip-rule="evenodd" d="M45.9593 14.5846L48.5388 15.482L38.5593 17.5231L30.4824 14.6308L37.467 13.2513L40.426 12.6667L43.0004 13.559L45.9593 14.5846Z" fill="#C5C6C6"/>
    <path fill-rule="evenodd" clip-rule="evenodd" d="M40.4256 12.6667L37.4666 13.2513L37.4717 11.641L35.2461 10.8718V7.91794L43.0153 10.5641L43 13.559L40.4256 12.6667Z" fill="#F3F3F3"/>
    <path fill-rule="evenodd" clip-rule="evenodd" d="M35.2455 10.8718L37.4711 11.641L27.5378 13.5743L19.8301 10.8154L29.7224 8.95895L35.2455 10.8718Z" fill="#C5C6C6"/>
    <path fill-rule="evenodd" clip-rule="evenodd" d="M30.4878 17.3641L27.5544 16.2974L27.5391 13.5744L37.4724 11.641L37.4673 13.2513L30.4827 14.6308L30.4878 17.3641Z" fill="#B1B1B1"/>
    <path fill-rule="evenodd" clip-rule="evenodd" d="M45.1068 36.1026L43.6401 36.4513L41.994 36.8462L38.5017 37.6718L38.3632 37.7077L34.6504 38.5898V25L45.2042 22.7231L45.1324 32.8051L45.1273 33.159L45.1119 35.0667L45.1068 36.1026Z" fill="#B1B1B1"/>
    <path fill-rule="evenodd" clip-rule="evenodd" d="M34.6514 38.5897L38.3643 37.7077L38.5027 37.7641L41.9796 39.159L45.0771 40.4L34.6514 42.959L26.3438 39.5077L33.0155 37.9282L34.6514 38.5897Z" fill="#89E440"/>
    <path fill-rule="evenodd" clip-rule="evenodd" d="M38.5017 37.7641L38.3633 37.7077L38.5017 37.6718V37.7641Z" fill="#FF7272"/>
    <path fill-rule="evenodd" clip-rule="evenodd" d="M45.076 40.4L41.9785 39.159L41.9939 36.8461L43.6401 36.4513L50.3683 39.1025L50.2247 52.0564L47.9119 51.082L45.0093 49.8615L45.076 40.4Z" fill="#DDF5B6"/>
    <path fill-rule="evenodd" clip-rule="evenodd" d="M45.0095 49.8615L47.9121 51.0821L44.9941 51.8564L45.0095 49.8615Z" fill="#B1B1B1"/>
    <path fill-rule="evenodd" clip-rule="evenodd" d="M45.076 40.4L45.0094 49.8615L44.994 51.8564L44.9837 53.4564L44.2196 53.6615L41.9017 54.282L39.0042 55.0564L34.6504 56.2154V42.959L45.076 40.4Z" fill="#68BC26"/>
    <path fill-rule="evenodd" clip-rule="evenodd" d="M34.6517 56.2154L39.0055 55.0564L41.8927 56.3179L44.9542 57.6564L34.6517 60.4769L26.4414 56.7641L32.3542 55.2L34.6517 56.2154Z" fill="#C5C6C6"/>
    <path fill-rule="evenodd" clip-rule="evenodd" d="M44.9541 57.6564L41.8926 56.3179L41.9028 54.282L44.2208 53.6615L50.1798 56.2205L50.0464 68.8718L44.8874 66.5231L44.9541 57.6564Z" fill="#F3F3F3"/>
    <path fill-rule="evenodd" clip-rule="evenodd" d="M44.953 57.6564L44.8863 66.5231L44.8606 70.4051L34.6504 73.4205V60.4769L44.953 57.6564Z" fill="#B1B1B1"/>
    <path fill-rule="evenodd" clip-rule="evenodd" d="M41.9789 39.159L38.502 37.7641V37.6718L41.9943 36.8461L41.9789 39.159Z" fill="#74D329"/>
    <path fill-rule="evenodd" clip-rule="evenodd" d="M42.0719 21.5846L38.5488 20.3026L38.5591 17.5231L48.5386 15.4821L48.5232 17.2L42.0873 18.5385L42.0719 21.5846Z" fill="#B1B1B1"/>
    <path fill-rule="evenodd" clip-rule="evenodd" d="M45.7082 33.0256L48.3646 34.0513V34.2974L45.1133 35.0667L45.1287 33.159L45.7082 33.0256Z" fill="#74D329"/>
    <path fill-rule="evenodd" clip-rule="evenodd" d="M39.0059 55.0564L41.9033 54.282L41.893 56.3179L39.0059 55.0564Z" fill="#B1B1B1"/>
    <path fill-rule="evenodd" clip-rule="evenodd" d="M45.1289 33.159L45.134 32.8051L45.7084 33.0256L45.1289 33.159Z" fill="#89E440"/>
    <path fill-rule="evenodd" clip-rule="evenodd" d="M52.4563 8.72307L43.0153 10.5641L35.2461 7.91794L44.6564 6.15384L52.4563 8.72307Z" fill="#C5C6C6"/>
    </symbol>
    
    <symbol id="benefit2" width="80" height="80" viewBox="0 0 80 80" fill="none" xmlns="http://www.w3.org/2000/svg">
      <path fill-rule="evenodd" clip-rule="evenodd" d="M12.7899 46.8718L12.3848 39.6769H63.6001L63.8719 52.8461H62.2053H17.6463H13.1284L13.0258 50.9949L12.7899 46.8718Z" fill="#B1B1B1"/>
      <path fill-rule="evenodd" clip-rule="evenodd" d="M5.69672 27.6923L4.91211 14.7487L36.189 24.9949L36.7275 38.7333L16.266 31.4513L5.69672 27.6923Z" fill="#DDF5B6"/>
      <path fill-rule="evenodd" clip-rule="evenodd" d="M5.69672 27.6923L4.91211 14.7487L43.1737 5.75898L74.9019 14.759L75.0711 27.7026L66.3224 30.2205L65.1942 30.5436L36.7275 38.7334L16.266 31.4513L5.69672 27.6923Z" fill="#DDF5B6"/>
      <path fill-rule="evenodd" clip-rule="evenodd" d="M36.189 24.9949L4.91211 14.7487L43.1737 5.75898L74.9019 14.759L36.189 24.9949Z" fill="#89E440"/>
      <path fill-rule="evenodd" clip-rule="evenodd" d="M36.1895 24.9949L74.9023 14.759L75.0715 27.7026L66.3228 30.2205L65.1946 30.5436L36.7279 38.7333L36.1895 24.9949Z" fill="#74D329"/>
      <path fill-rule="evenodd" clip-rule="evenodd" d="M36.7284 38.7333L65.195 30.5436L63.6002 39.6769H12.3848L16.2668 31.4513L36.7284 38.7333Z" fill="#C5C6C6"/>
      <path fill-rule="evenodd" clip-rule="evenodd" d="M75.4974 60.9333L38.1179 73.9282L7.7077 60.9179L6.95898 48.5641L13.0256 50.9949L13.1282 52.8461H17.6462H62.2051H63.8718L63.9641 52.2769L75.3385 48.5743L75.4974 60.9333Z" fill="#68BC26"/>
      <path fill-rule="evenodd" clip-rule="evenodd" d="M38.1179 73.9282L7.7077 60.9179L6.95898 48.5641L13.0256 50.9949L13.1282 52.8461H17.6462L37.6051 60.8513L38.1179 73.9282Z" fill="#DDF5B6"/>
      <path fill-rule="evenodd" clip-rule="evenodd" d="M17.6465 52.8461H62.2055L37.6055 60.8513L17.6465 52.8461Z" fill="#89E440"/>
      <path fill-rule="evenodd" clip-rule="evenodd" d="M12.7898 46.8718L13.0256 50.9949L6.95898 48.5641L12.7898 46.8718Z" fill="#89E440"/>
      <path fill-rule="evenodd" clip-rule="evenodd" d="M75.4978 60.9333L38.1183 73.9282L37.6055 60.8513L62.2055 52.8461H63.8721L63.9645 52.2769L75.3388 48.5743L75.4978 60.9333Z" fill="#74D329"/>
      <path fill-rule="evenodd" clip-rule="evenodd" d="M75.3392 48.5743L63.9648 52.2769L65.1341 45.0205L75.3392 48.5743Z" fill="#89E440"/>
      <path fill-rule="evenodd" clip-rule="evenodd" d="M65.133 45.0205L63.9637 52.2769L63.8714 52.8461L63.5996 39.6769L65.1945 30.5436L66.3227 30.2205L66.4509 36.8615L65.133 45.0205Z" fill="#B1B1B1"/>
      <path fill-rule="evenodd" clip-rule="evenodd" d="M12.7899 46.8718L12.3848 39.6769H63.6001L63.8719 52.8461H62.2053H17.6463H13.1284L13.0258 50.9949L12.7899 46.8718Z" fill="#B1B1B1"/>
      <path fill-rule="evenodd" clip-rule="evenodd" d="M5.69672 27.6923L4.91211 14.7487L36.189 24.9949L36.7275 38.7333L16.266 31.4513L5.69672 27.6923Z" fill="#DDF5B6"/>
      <path fill-rule="evenodd" clip-rule="evenodd" d="M5.69672 27.6923L4.91211 14.7487L43.1737 5.75898L74.9019 14.759L75.0711 27.7026L66.3224 30.2205L65.1942 30.5436L36.7275 38.7334L16.266 31.4513L5.69672 27.6923Z" fill="#DDF5B6"/>
      <path fill-rule="evenodd" clip-rule="evenodd" d="M36.189 24.9949L4.91211 14.7487L43.1737 5.75898L74.9019 14.759L36.189 24.9949Z" fill="#89E440"/>
      <path fill-rule="evenodd" clip-rule="evenodd" d="M36.1895 24.9949L74.9023 14.759L75.0715 27.7026L66.3228 30.2205L65.1946 30.5436L36.7279 38.7333L36.1895 24.9949Z" fill="#68BC26"/>
      <path fill-rule="evenodd" clip-rule="evenodd" d="M36.7284 38.7333L65.195 30.5436L63.6002 39.6769H12.3848L16.2668 31.4513L36.7284 38.7333Z" fill="#C5C6C6"/>
      <path fill-rule="evenodd" clip-rule="evenodd" d="M75.4974 60.9333L38.1179 73.9282L7.7077 60.9179L6.95898 48.5641L13.0256 50.9949L13.1282 52.8461H17.6462H62.2051H63.8718L63.9641 52.2769L75.3385 48.5743L75.4974 60.9333Z" fill="#68BC26"/>
      <path fill-rule="evenodd" clip-rule="evenodd" d="M38.1179 73.9282L7.7077 60.9179L6.95898 48.5641L13.0256 50.9949L13.1282 52.8461H17.6462L37.6051 60.8513L38.1179 73.9282Z" fill="#DDF5B6"/>
      <path fill-rule="evenodd" clip-rule="evenodd" d="M17.6465 52.8461H62.2055L37.6055 60.8513L17.6465 52.8461Z" fill="#89E440"/>
      <path fill-rule="evenodd" clip-rule="evenodd" d="M12.7898 46.8718L13.0256 50.9949L6.95898 48.5641L12.7898 46.8718Z" fill="#89E440"/>
      <path fill-rule="evenodd" clip-rule="evenodd" d="M75.4978 60.9333L38.1183 73.9282L37.6055 60.8513L62.2055 52.8461H63.8721L63.9645 52.2769L75.3388 48.5743L75.4978 60.9333Z" fill="#68BC26"/>
      <path fill-rule="evenodd" clip-rule="evenodd" d="M75.3392 48.5743L63.9648 52.2769L65.1341 45.0205L75.3392 48.5743Z" fill="#89E440"/>
      <path fill-rule="evenodd" clip-rule="evenodd" d="M65.133 45.0205L63.9637 52.2769L63.8714 52.8461L63.5996 39.6769L65.1945 30.5436L66.3227 30.2205L66.4509 36.8615L65.133 45.0205Z" fill="#B1B1B1"/>
      </symbol>
      
    <symbol id="close" width="18" height="18" viewBox="0 0 18 18" fill="none" xmlns="http://www.w3.org/2000/svg">
      <path d="M14.25 4.8075L13.1925 3.75L9 7.9425L4.8075 3.75L3.75 4.8075L7.9425 9L3.75 13.1925L4.8075 14.25L9 10.0575L13.1925 14.25L14.25 13.1925L10.0575 9L14.25 4.8075Z" fill="#080109"/>
    </symbol>

    <symbol id="tel" width="32" height="32" viewBox="0 0 32 32" fill="none" xmlns="http://www.w3.org/2000/svg">
      <path d="M6.37121 20.3575L9.75788 19.9708C10.5712 19.8775 11.3712 20.1575 11.9445 20.7308L14.3979 23.1842C18.1712 21.2642 21.2645 18.1842 23.1845 14.3975L20.7179 11.9308C20.1445 11.3575 19.8645 10.5575 19.9579 9.74417L20.3445 6.38417C20.5045 5.0375 21.6379 4.02417 22.9979 4.02417H25.3045C26.8112 4.02417 28.0645 5.2775 27.9712 6.78417C27.2645 18.1708 18.1579 27.2642 6.78454 27.9708C5.27788 28.0642 4.02454 26.8108 4.02454 25.3042V22.9975C4.01121 21.6508 5.02454 20.5175 6.37121 20.3575Z" fill="#080109"/>
    </symbol>
      
    <symbol id="pin" width="32" height="32" viewBox="0 0 32 32" fill="none" xmlns="http://www.w3.org/2000/svg">
      <path d="M15.9997 2.88159C10.3997 2.88159 5.33301 7.17492 5.33301 13.8149C5.33301 18.0549 8.59967 23.0416 15.1197 28.7883C15.6263 29.2283 16.3863 29.2283 16.893 28.7883C23.3997 23.0416 26.6663 18.0549 26.6663 13.8149C26.6663 7.17492 21.5997 2.88159 15.9997 2.88159ZM15.9997 16.2149C14.533 16.2149 13.333 15.0149 13.333 13.5483C13.333 12.0816 14.533 10.8816 15.9997 10.8816C17.4663 10.8816 18.6663 12.0816 18.6663 13.5483C18.6663 15.0149 17.4663 16.2149 15.9997 16.2149Z" fill="#080109"/>
    </symbol>

    <symbol id="mail" width="32" height="32" viewBox="0 0 32 32" fill="none" xmlns="http://www.w3.org/2000/svg">
      <path d="M26.667 5.33325H5.33366C3.86699 5.33325 2.68033 6.53325 2.68033 7.99992L2.66699 23.9999C2.66699 25.4666 3.86699 26.6666 5.33366 26.6666H26.667C28.1337 26.6666 29.3337 25.4666 29.3337 23.9999V7.99992C29.3337 6.53325 28.1337 5.33325 26.667 5.33325ZM26.1337 10.9999L16.707 16.8933C16.2803 17.1599 15.7203 17.1599 15.2937 16.8933L5.86699 10.9999C5.53366 10.7866 5.33366 10.4266 5.33366 10.0399C5.33366 9.14659 6.30699 8.61325 7.06699 9.07992L16.0003 14.6666L24.9337 9.07992C25.6937 8.61325 26.667 9.14659 26.667 10.0399C26.667 10.4266 26.467 10.7866 26.1337 10.9999Z" fill="#080109"/>
    </symbol>

    <symbol id="chevron-right" width="18" height="18" viewBox="0 0 18 18" fill="none" xmlns="http://www.w3.org/2000/svg">
      <path d="M7.2782 4.5L6.2207 5.5575L9.6557 9L6.2207 12.4425L7.2782 13.5L11.7782 9L7.2782 4.5Z" fill="#080109"/>
    </symbol>
      
    <symbol id="feature1" width="44" height="44" viewBox="0 0 44 44" fill="none" xmlns="http://www.w3.org/2000/svg">
      <path d="M38.5007 6.41663H5.50065C3.48398 6.41663 1.83398 8.06663 1.83398 10.0833V33.9166C1.83398 35.9333 3.48398 37.5833 5.50065 37.5833H38.5007C40.5173 37.5833 42.1673 35.9333 42.1673 33.9166V10.0833C42.1673 8.06663 40.5173 6.41663 38.5007 6.41663ZM12.834 21.0833V24.75H9.16732V21.0833H12.834ZM9.16732 17.4166V13.75H12.834V17.4166H9.16732ZM20.1673 21.0833V24.75H16.5007V21.0833H20.1673ZM16.5007 17.4166V13.75H20.1673V17.4166H16.5007ZM29.334 28.4166V30.25H14.6673V28.4166H29.334ZM27.5007 21.0833V24.75H23.834V21.0833H27.5007ZM23.834 17.4166V13.75H27.5007V17.4166H23.834ZM31.1673 24.75V21.0833H34.834V24.75H31.1673ZM34.834 17.4166H31.1673V13.75H34.834V17.4166Z" fill="white"/>
    </symbol>

    <symbol id="feature2" width="44" height="44" viewBox="0 0 44 44" fill="none" xmlns="http://www.w3.org/2000/svg">
      <path d="M27.5 5.5L31.7167 9.71667L26.4183 14.9783L29.0217 17.5817L34.2833 12.2833L38.5 16.5V5.5H27.5ZM5.5 16.5L9.71667 12.2833L14.9783 17.5817L17.5817 14.9783L12.2833 9.71667L16.5 5.5H5.5V16.5ZM16.5 38.5L12.2833 34.2833L17.5817 29.0217L14.9783 26.4183L9.71667 31.7167L5.5 27.5V38.5H16.5ZM38.5 27.5L34.2833 31.7167L29.0217 26.4183L26.4183 29.0217L31.7167 34.2833L27.5 38.5H38.5V27.5Z" fill="white"/>
    </symbol>
      
    <symbol id="feature3" width="44" height="44" viewBox="0 0 44 44" fill="none" xmlns="http://www.w3.org/2000/svg">
      <path d="M12.8327 5.50004H7.33268V11H3.66602V1.83337H12.8327V5.50004ZM40.3327 11V1.83337H31.166V5.50004H36.666V11H40.3327ZM12.8327 38.5H7.33268V33H3.66602V42.1667H12.8327V38.5ZM36.666 33V38.5H31.166V42.1667H40.3327V33H36.666ZM34.8327 33C34.8327 35.0167 33.1827 36.6667 31.166 36.6667H12.8327C10.816 36.6667 9.16602 35.0167 9.16602 33V11C9.16602 8.98337 10.816 7.33337 12.8327 7.33337H31.166C33.1827 7.33337 34.8327 8.98337 34.8327 11V33ZM27.4993 14.6667H16.4993V18.3334H27.4993V14.6667ZM27.4993 20.1667H16.4993V23.8334H27.4993V20.1667ZM27.4993 25.6667H16.4993V29.3334H27.4993V25.6667Z" fill="white"/>
    </symbol>

    <symbol id="feature4" width="44" height="44" viewBox="0 0 44 44" fill="none" xmlns="http://www.w3.org/2000/svg">
      <path d="M4.58398 8.25V13.75H13.7507V35.75H19.2507V13.75H28.4173V8.25H4.58398ZM39.4173 17.4167H22.9173V22.9167H28.4173V35.75H33.9173V22.9167H39.4173V17.4167Z" fill="white"/>
    </symbol>
      
    <symbol id="feature5" width="44" height="44" viewBox="0 0 44 44" fill="none" xmlns="http://www.w3.org/2000/svg">
      <path d="M22.0007 11V16.5L29.334 9.16671L22.0007 1.83337V7.33337C13.8973 7.33337 7.33398 13.8967 7.33398 22C7.33398 24.8784 8.17732 27.555 9.60732 29.81L12.284 27.1334C11.459 25.6117 11.0007 23.8517 11.0007 22C11.0007 15.9317 15.9323 11 22.0007 11ZM34.394 14.19L31.7173 16.8667C32.524 18.4067 33.0007 20.1484 33.0007 22C33.0007 28.0684 28.069 33 22.0007 33V27.5L14.6673 34.8334L22.0007 42.1667V36.6667C30.104 36.6667 36.6673 30.1034 36.6673 22C36.6673 19.1217 35.824 16.445 34.394 14.19Z" fill="white"/>
    </symbol>

    <symbol id="feature6" width="44" height="44" viewBox="0 0 44 44" fill="none" xmlns="http://www.w3.org/2000/svg">
      <path d="M20.1667 38.5H9.16667C7.15 38.5 5.5 36.85 5.5 34.8333V9.16667C5.5 7.15 7.15 5.5 9.16667 5.5H20.1667V38.5ZM23.8333 38.5H34.8333C36.85 38.5 38.5 36.85 38.5 34.8333V22H23.8333V38.5ZM38.5 18.3333V9.16667C38.5 7.15 36.85 5.5 34.8333 5.5H23.8333V18.3333H38.5Z" fill="white"/>
    </symbol>
      
      
    <symbol id="feature7" width="44" height="44" viewBox="0 0 44 44" fill="none" xmlns="http://www.w3.org/2000/svg">
      <path d="M21.9993 40.3334C32.1193 40.3334 40.3327 32.12 40.3327 22C40.3327 11.88 32.1193 3.66669 21.9993 3.66669C11.8793 3.66669 3.66602 11.88 3.66602 22C3.66602 32.12 11.8793 40.3334 21.9993 40.3334ZM23.8327 7.46169C31.056 8.36002 36.666 14.52 36.666 22C36.666 29.48 31.0743 35.64 23.8327 36.5384V7.46169Z" fill="white"/>
    </symbol>
      
    <symbol id="feature8" width="44" height="44" viewBox="0 0 44 44" fill="none" xmlns="http://www.w3.org/2000/svg">
      <path d="M36.666 7.33331H7.33268C5.31602 7.33331 3.66602 8.98331 3.66602 11V33C3.66602 35.0166 5.31602 36.6666 7.33268 36.6666H36.666C38.6827 36.6666 40.3327 35.0166 40.3327 33V11C40.3327 8.98331 38.6827 7.33331 36.666 7.33331ZM7.33268 22H14.666V25.6666H7.33268V22ZM25.666 33H7.33268V29.3333H25.666V33ZM36.666 33H29.3327V29.3333H36.666V33ZM36.666 25.6666H18.3327V22H36.666V25.6666Z" fill="white"/>
    </symbol>
        
    <symbol id="feature9" width="44" height="44" viewBox="0 0 44 44" fill="none" xmlns="http://www.w3.org/2000/svg">
      <path d="M9.16602 32.0833V35.75H34.8327V32.0833H9.16602ZM17.416 24.3833H26.5827L28.2327 28.4167H32.0827L23.3743 8.25H20.6243L11.916 28.4167H15.766L17.416 24.3833ZM21.9993 11.88L25.4277 21.0833H18.571L21.9993 11.88Z" fill="white"/>
    </symbol>
      
    <symbol id="feature10" width="44" height="44" viewBox="0 0 44 44" fill="none" xmlns="http://www.w3.org/2000/svg">
      <path d="M21.4869 27.9583H25.3185L15.9502 4.125H12.5402L3.17188 27.9583H7.00354L9.05688 22.4583H19.3969L21.4869 27.9583ZM10.4502 18.7917L14.2452 8.67167L18.0402 18.7917H10.4502ZM38.2435 19.8733L23.4119 34.705L16.6835 27.9583L14.0985 30.5433L23.4302 39.875L40.8285 22.4583L38.2435 19.8733Z" fill="white"/>
    </symbol>
      
    <symbol id="feature11" width="44" height="44" viewBox="0 0 44 44" fill="none" xmlns="http://www.w3.org/2000/svg">
      <path d="M25.6673 31.1667H7.33398V34.8334H25.6673V31.1667ZM36.6673 16.5H7.33398V20.1667H36.6673V16.5ZM7.33398 27.5H36.6673V23.8334H7.33398V27.5ZM7.33398 9.16669V12.8334H36.6673V9.16669H7.33398Z" fill="white"/>
    </symbol>
      
    <symbol id="feature12" width="44" height="44" viewBox="0 0 44 44" fill="none" xmlns="http://www.w3.org/2000/svg">
      <path d="M34.8333 7.33335H27.17C26.4 5.20669 24.3833 3.66669 22 3.66669C19.6167 3.66669 17.6 5.20669 16.83 7.33335H9.16667C7.15 7.33335 5.5 8.98335 5.5 11V36.6667C5.5 38.6834 7.15 40.3334 9.16667 40.3334H34.8333C36.85 40.3334 38.5 38.6834 38.5 36.6667V11C38.5 8.98335 36.85 7.33335 34.8333 7.33335ZM22 7.33335C23.0083 7.33335 23.8333 8.15835 23.8333 9.16669C23.8333 10.175 23.0083 11 22 11C20.9917 11 20.1667 10.175 20.1667 9.16669C20.1667 8.15835 20.9917 7.33335 22 7.33335ZM18.3333 33L11 25.6667L13.585 23.0817L18.3333 27.8117L30.415 15.73L33 18.3334L18.3333 33Z" fill="white"/>
    </symbol>
      
</svg>